<svg width="1440" height="1024" viewBox="0 0 1440 1024" fill="none" xmlns="http://www.w3.org/2000/svg">
<rect width="1440" height="1024" fill="#DA002E"/>
<g clip-path="url(#clip0)">
<path d="M654.076 552.592C654.076 560.823 639.235 583.685 605.489 583.685C576.724 583.685 572.658 566.513 572.658 543.549C572.658 499.858 613.316 498.943 646.452 498.943H654.076V552.592ZM878.914 312.492C858.585 312.492 840.187 321.84 817.927 342.365C789.215 371.835 768.867 408.412 758.972 448.342H719.331L717.502 454.845H757.143C745.454 493.761 730.411 559.705 728.988 565.192C727.453 570.471 724.344 575.157 720.076 578.625C715.809 582.092 710.585 584.177 705.101 584.599C693.006 584.599 691.582 574.438 691.582 566.614V459.417C691.582 427.918 650.924 411.967 616.873 411.967C571.845 411.967 547.552 434.93 547.552 455.759C547.552 469.68 554.769 478.621 567.372 478.621C569.836 478.83 572.315 478.552 574.671 477.801C577.026 477.051 579.211 475.844 581.099 474.249C582.987 472.654 584.542 470.703 585.675 468.506C586.808 466.31 587.496 463.913 587.701 461.45C587.701 443.059 572.862 447.529 572.862 437.673C572.862 422.94 603.354 418.47 616.568 418.47C633.644 418.47 653.465 422.94 653.465 442.246V493.05H644.927C598.577 493.05 531.492 504.532 531.492 550.357C531.492 578.198 552.634 594.15 587.803 594.15C617.483 594.15 637.813 587.241 653.059 568.748H654.99C658.141 583.075 673.49 594.15 694.632 594.15C700.384 594.392 706.125 593.464 711.506 591.42C716.888 589.376 721.797 586.261 725.938 582.262C717.705 615.793 710.285 645.361 703.475 664.463C691.379 698.401 673.794 704.496 666.069 704.496C662.003 704.496 659.26 703.278 659.26 700.433C659.26 695.556 667.797 695.556 667.797 683.667C667.666 681.194 667.022 678.774 665.906 676.563C664.791 674.351 663.229 672.396 661.318 670.82C659.407 669.244 657.188 668.081 654.804 667.407C652.42 666.732 649.922 666.561 647.468 666.902C642.077 666.902 636.906 669.043 633.094 672.854C629.282 676.665 627.14 681.834 627.14 687.224C627.805 693.869 630.964 700.016 635.98 704.427C640.997 708.838 647.499 711.187 654.177 711C682.536 711 700.527 699.924 731.122 643.43C751.451 606.241 767.917 538.774 794.446 455.252H841.711L843.033 448.749H795.768L809.693 402.11C815.487 382.398 840.186 319.503 866.919 319.503C869.562 319.503 873.221 319.503 873.221 322.754C873.221 326.006 866.005 328.546 866.005 339.52C866.271 342.095 867.043 344.593 868.275 346.87C869.508 349.148 871.177 351.16 873.187 352.793C875.198 354.425 877.509 355.645 879.992 356.384C882.474 357.122 885.079 357.365 887.655 357.098C892.999 357.433 898.26 355.648 902.295 352.128C906.33 348.608 908.812 343.639 909.203 338.301C908.939 334.605 907.93 331.001 906.239 327.705C904.548 324.408 902.21 321.487 899.363 319.115C896.516 316.743 893.219 314.97 889.67 313.902C886.121 312.834 882.394 312.493 878.71 312.899" fill="white"/>
</g>
<defs>
<clipPath id="clip0">
<rect width="377" height="398" fill="white" transform="translate(532 313)"/>
</clipPath>
</defs>
</svg>
