<svg width="30" height="20" viewBox="0 0 30 20" fill="none" xmlns="http://www.w3.org/2000/svg">
<path d="M1 9.67496C1 9.30945 1.29792 9.01314 1.66541 9.01314H26.9512C27.3187 9.01314 27.6166 9.30945 27.6166 9.67496V10.9986C27.6166 11.3641 27.3187 11.6604 26.9512 11.6604H1.66541C1.29792 11.6604 1 11.3641 1 10.9986V9.67496Z" fill="#363636"/>
<path d="M20.1021 16.8702C19.8423 16.6117 19.8423 16.1927 20.1021 15.9343L26.923 9.15021C27.1829 8.89175 27.6042 8.89175 27.8641 9.15021L28.8051 10.0862C29.065 10.3446 29.065 10.7637 28.8051 11.0221L21.9842 17.8062C21.7243 18.0646 21.303 18.0646 21.0432 17.8062L20.1021 16.8702Z" fill="#363636"/>
<path d="M21.0432 3.19384C21.303 2.93539 21.7243 2.93539 21.9842 3.19384L28.8051 9.97788C29.065 10.2363 29.065 10.6554 28.8051 10.9138L27.8641 11.8498C27.6042 12.1082 27.1829 12.1082 26.923 11.8498L20.1021 5.06575C19.8423 4.80729 19.8423 4.38825 20.1021 4.1298L21.0432 3.19384Z" fill="#363636"/>
</svg>
