<svg width="30" height="20" viewBox="0 0 30 20" fill="none" xmlns="http://www.w3.org/2000/svg">
<path d="M29 9.67496C29 9.30945 28.7021 9.01314 28.3346 9.01314H3.04883C2.68134 9.01314 2.38342 9.30945 2.38342 9.67496V10.9986C2.38342 11.3641 2.68134 11.6604 3.04883 11.6604H28.3346C28.7021 11.6604 29 11.3641 29 10.9986V9.67496Z" fill="#363636"/>
<path d="M9.89787 16.8702C10.1577 16.6117 10.1577 16.1927 9.89787 15.9343L3.07697 9.15021C2.81711 8.89175 2.3958 8.89175 2.13593 9.15021L1.1949 10.0862C0.935037 10.3446 0.935037 10.7637 1.1949 11.0221L8.0158 17.8062C8.27566 18.0646 8.69698 18.0646 8.95684 17.8062L9.89787 16.8702Z" fill="#363636"/>
<path d="M8.95683 3.19384C8.69697 2.93539 8.27566 2.93539 8.0158 3.19384L1.1949 9.97788C0.935035 10.2363 0.935035 10.6554 1.1949 10.9138L2.13593 11.8498C2.39579 12.1082 2.81711 12.1082 3.07697 11.8498L9.89787 5.06575C10.1577 4.80729 10.1577 4.38825 9.89787 4.1298L8.95683 3.19384Z" fill="#363636"/>
</svg>
