<svg width="30" height="20" viewBox="0 0 30 20" fill="none" xmlns="http://www.w3.org/2000/svg">
<path d="M1.06245 9.70655C1.09844 9.61991 1.15167 9.53873 1.22214 9.46827L7.47467 3.21604C7.76274 2.92799 8.22979 2.92799 8.51785 3.21604L9.03944 3.7376C9.32751 4.02566 9.32751 4.49268 9.03944 4.78073L5.10536 8.71462H28.2624C28.6697 8.71462 29 9.04486 29 9.45223V10.1898C29 10.5972 28.6697 10.9274 28.2624 10.9274H4.7474L9.03945 15.2193C9.32751 15.5073 9.32751 15.9743 9.03945 16.2624L8.51786 16.784C8.22979 17.072 7.76274 17.072 7.47468 16.784L1.21605 10.5256C0.994577 10.3042 0.943378 9.97692 1.06245 9.70655Z" fill="#363636"/>
</svg>
