<svg width="1440" height="1024" viewBox="0 0 1440 1024" fill="none" xmlns="http://www.w3.org/2000/svg">
<rect width="1440" height="1024" fill="#FFDBC5"/>
<path d="M344.053 506.84C353.013 507.907 360.106 510.893 365.333 515.8C370.666 520.707 373.333 526.787 373.333 534.04C373.333 539.587 371.733 544.6 368.533 549.08C365.333 553.56 360.906 557.133 355.253 559.8C349.6 562.36 343.306 563.64 336.373 563.64C333.386 563.64 329.973 563.48 326.133 563.16C324.64 563.053 322.773 562.947 320.533 562.84C318.4 562.733 316 562.68 313.333 562.68L301.653 562.84C299.52 562.947 296.64 563 293.013 563C292.693 563 292.533 562.68 292.533 562.04C292.533 561.4 292.693 561.08 293.013 561.08C296.106 561.08 298.453 560.813 300.053 560.28C301.653 559.64 302.773 558.573 303.413 557.08C304.16 555.48 304.533 553.133 304.533 550.04V475.96C304.533 471.48 303.786 468.547 302.293 467.16C300.8 465.667 297.76 464.92 293.173 464.92C292.96 464.92 292.853 464.6 292.853 463.96C292.853 463.32 292.96 463 293.173 463L301.653 463.16C306.56 463.373 310.453 463.48 313.333 463.48C316.32 463.48 319.413 463.32 322.613 463C323.68 462.893 325.28 462.787 327.413 462.68C329.546 462.573 331.413 462.52 333.013 462.52C342.72 462.52 350.24 464.28 355.573 467.8C360.906 471.32 363.573 476.44 363.573 483.16C363.573 488.28 361.866 492.92 358.453 497.08C355.146 501.24 350.346 504.493 344.053 506.84ZM330.613 466.04C327.52 466.04 325.386 466.787 324.213 468.28C323.04 469.667 322.453 472.333 322.453 476.28V506.68L328.853 506.84C334.4 506.84 338.666 504.76 341.653 500.6C344.64 496.44 346.133 491.107 346.133 484.6C346.133 478.52 344.8 473.933 342.133 470.84C339.466 467.64 335.626 466.04 330.613 466.04ZM333.653 559.64C347.626 559.64 354.613 552.387 354.613 537.88C354.613 529.667 352.64 523.16 348.693 518.36C344.746 513.56 338.773 511.16 330.773 511.16C327.68 511.16 324.906 511.267 322.453 511.48V550.04C322.453 553.56 323.146 556.067 324.533 557.56C325.92 558.947 328.96 559.64 333.653 559.64ZM419.529 565.08C412.916 565.08 407.103 563.587 402.089 560.6C397.183 557.507 393.396 553.4 390.729 548.28C388.063 543.053 386.729 537.4 386.729 531.32C386.729 524.387 388.489 518.52 392.009 513.72C395.529 508.813 400.009 505.187 405.449 502.84C410.889 500.387 416.489 499.16 422.249 499.16C428.863 499.16 434.623 500.707 439.529 503.8C444.436 506.893 448.169 511 450.729 516.12C453.396 521.133 454.729 526.52 454.729 532.28C454.729 538.68 453.129 544.387 449.929 549.4C446.729 554.307 442.409 558.147 436.969 560.92C431.636 563.693 425.823 565.08 419.529 565.08ZM424.329 561.72C428.489 561.72 431.636 559.693 433.769 555.64C436.009 551.48 437.129 545.56 437.129 537.88C437.129 530.413 436.169 524.013 434.249 518.68C432.329 513.347 429.823 509.347 426.729 506.68C423.636 503.907 420.329 502.52 416.809 502.52C408.276 502.52 404.009 510.147 404.009 525.4C404.009 532.547 404.916 538.893 406.729 544.44C408.543 549.88 410.996 554.147 414.089 557.24C417.183 560.227 420.596 561.72 424.329 561.72ZM497.811 565.08C491.197 565.08 485.384 563.587 480.371 560.6C475.464 557.507 471.677 553.4 469.011 548.28C466.344 543.053 465.011 537.4 465.011 531.32C465.011 524.387 466.771 518.52 470.291 513.72C473.811 508.813 478.291 505.187 483.731 502.84C489.171 500.387 494.771 499.16 500.531 499.16C507.144 499.16 512.904 500.707 517.811 503.8C522.717 506.893 526.451 511 529.011 516.12C531.677 521.133 533.011 526.52 533.011 532.28C533.011 538.68 531.411 544.387 528.211 549.4C525.011 554.307 520.691 558.147 515.251 560.92C509.917 563.693 504.104 565.08 497.811 565.08ZM502.611 561.72C506.771 561.72 509.917 559.693 512.051 555.64C514.291 551.48 515.411 545.56 515.411 537.88C515.411 530.413 514.451 524.013 512.531 518.68C510.611 513.347 508.104 509.347 505.011 506.68C501.917 503.907 498.611 502.52 495.091 502.52C486.557 502.52 482.291 510.147 482.291 525.4C482.291 532.547 483.197 538.893 485.011 544.44C486.824 549.88 489.277 554.147 492.371 557.24C495.464 560.227 498.877 561.72 502.611 561.72ZM617.692 561.08C618.012 561.08 618.172 561.4 618.172 562.04C618.172 562.68 618.012 563 617.692 563C614.919 563 612.732 562.947 611.132 562.84L601.532 562.68L589.212 562.84C587.399 562.947 584.945 563 581.852 563C581.532 563 581.372 562.68 581.372 562.04C581.372 561.4 581.532 561.08 581.852 561.08C585.692 561.08 587.612 559.96 587.612 557.72C587.612 556.547 587.185 555.48 586.332 554.52L568.092 531.16L565.052 533.88V550.04C565.052 554.307 565.639 557.24 566.812 558.84C568.092 560.333 570.385 561.08 573.692 561.08C574.119 561.08 574.332 561.4 574.332 562.04C574.332 562.68 574.119 563 573.692 563C570.919 563 568.679 562.947 566.972 562.84L557.692 562.68L548.092 562.84C546.492 562.947 544.305 563 541.532 563C541.319 563 541.212 562.68 541.212 562.04C541.212 561.4 541.319 561.08 541.532 561.08C544.839 561.08 547.079 560.333 548.252 558.84C549.532 557.24 550.172 554.307 550.172 550.04V468.76C550.172 465.027 549.799 462.36 549.052 460.76C548.412 459.16 547.239 458.36 545.532 458.36C544.039 458.36 542.012 458.947 539.452 460.12H539.292C538.972 460.12 538.652 459.853 538.332 459.32C538.119 458.68 538.119 458.307 538.332 458.2L561.692 447.16L562.492 447C563.025 447 563.559 447.267 564.092 447.8C564.732 448.227 565.052 448.653 565.052 449.08V530.2L579.932 515.8C582.705 513.24 584.092 510.627 584.092 507.96C584.092 506.573 583.559 505.453 582.492 504.6C581.425 503.64 579.932 503.16 578.012 503.16C577.799 503.16 577.692 502.84 577.692 502.2C577.692 501.56 577.799 501.24 578.012 501.24C581.105 501.24 583.505 501.293 585.212 501.4L597.852 501.56L609.532 501.4C611.025 501.293 613.105 501.24 615.772 501.24C616.092 501.24 616.252 501.56 616.252 502.2C616.252 502.84 616.092 503.16 615.772 503.16C611.185 503.16 605.905 504.333 599.932 506.68C594.065 508.92 588.785 512.227 584.092 516.6L578.332 521.88L600.252 550.04C603.345 553.88 606.279 556.707 609.052 558.52C611.932 560.227 614.812 561.08 617.692 561.08ZM750.046 561.08C750.259 561.08 750.366 561.4 750.366 562.04C750.366 562.68 750.259 563 750.046 563C746.419 563 743.539 562.947 741.406 562.84L729.566 562.68L717.566 562.84C715.539 562.947 712.766 563 709.246 563C708.926 563 708.766 562.68 708.766 562.04C708.766 561.4 708.926 561.08 709.246 561.08C713.726 561.08 716.766 560.547 718.366 559.48C719.966 558.413 720.766 556.173 720.766 552.76L720.606 550.04L717.246 484.6L684.286 561.88C684.072 562.307 683.646 562.52 683.006 562.52C682.366 562.52 681.939 562.307 681.726 561.88L641.246 484.92L639.966 542.68C639.859 548.44 640.979 552.973 643.326 556.28C645.779 559.48 649.192 561.08 653.566 561.08C653.886 561.08 654.046 561.4 654.046 562.04C654.046 562.68 653.886 563 653.566 563C650.686 563 648.446 562.947 646.846 562.84L638.046 562.68L627.966 562.84C626.259 562.947 623.966 563 621.086 563C620.766 563 620.606 562.68 620.606 562.04C620.606 561.4 620.766 561.08 621.086 561.08C625.459 561.08 628.926 559.427 631.486 556.12C634.046 552.813 635.379 548.333 635.486 542.68L636.926 476.44L636.766 476.28C634.632 472.333 632.392 469.453 630.046 467.64C627.806 465.827 625.192 464.92 622.206 464.92C621.886 464.92 621.726 464.6 621.726 463.96C621.726 463.32 621.886 463 622.206 463L629.726 463.16C631.219 463.267 633.139 463.32 635.486 463.32L643.966 463.16C644.926 463.053 646.152 463 647.646 463C649.032 463 650.099 463.48 650.846 464.44C651.592 465.4 652.979 467.693 655.006 471.32L689.886 536.76L720.286 467C720.926 465.507 721.566 464.493 722.206 463.96C722.952 463.32 723.912 463 725.086 463C726.046 463 727.112 463.053 728.286 463.16C729.566 463.267 731.006 463.32 732.606 463.32L742.046 463.16C743.539 463.053 745.672 463 748.446 463C748.766 463 748.926 463.32 748.926 463.96C748.926 464.6 748.766 464.92 748.446 464.92C743.432 464.92 739.806 465.933 737.566 467.96C735.326 469.987 734.312 473.133 734.526 477.4L738.366 550.04C738.579 553.347 738.952 555.747 739.486 557.24C740.126 558.733 741.192 559.747 742.686 560.28C744.286 560.813 746.739 561.08 750.046 561.08ZM824.513 501.24C824.726 501.24 824.833 501.56 824.833 502.2C824.833 502.84 824.726 503.16 824.513 503.16C821.1 503.16 818.113 504.653 815.553 507.64C813.1 510.52 810.86 514.733 808.833 520.28L791.073 567.48C785.42 582.413 779.98 592.867 774.753 598.84C769.633 604.92 763.926 607.96 757.633 607.96C754.433 607.96 751.98 607.267 750.273 605.88C748.566 604.6 747.713 602.68 747.713 600.12C747.713 597.667 748.46 595.8 749.953 594.52C751.446 593.24 753.26 592.6 755.393 592.6C756.566 592.6 757.526 592.76 758.273 593.08C759.126 593.4 760.14 593.933 761.313 594.68C763.34 596.067 765.26 596.76 767.073 596.76C769.526 596.76 771.713 595.8 773.633 593.88C775.66 592.067 777.74 588.973 779.873 584.6C782.006 580.333 784.566 574.2 787.553 566.2L761.953 514.52C759.606 509.933 757.74 506.893 756.353 505.4C755.073 503.907 753.473 503.16 751.553 503.16C751.233 503.16 751.073 502.84 751.073 502.2C751.073 501.56 751.233 501.24 751.553 501.24C754.54 501.24 756.833 501.293 758.433 501.4L765.153 501.56L776.193 501.4C777.9 501.293 780.193 501.24 783.073 501.24C783.393 501.24 783.553 501.56 783.553 502.2C783.553 502.84 783.393 503.16 783.073 503.16C780.3 503.16 778.273 503.427 776.993 503.96C775.713 504.387 775.073 505.133 775.073 506.2C775.073 507.053 775.393 508.12 776.033 509.4L794.913 547.96L804.513 520.12C805.473 517.347 805.953 514.84 805.953 512.6C805.953 509.613 805.1 507.32 803.393 505.72C801.686 504.013 799.233 503.16 796.033 503.16C795.82 503.16 795.713 502.84 795.713 502.2C795.713 501.56 795.82 501.24 796.033 501.24C798.913 501.24 801.1 501.293 802.593 501.4L812.193 501.56L818.593 501.4C819.873 501.293 821.846 501.24 824.513 501.24ZM879.834 506.84C888.794 507.907 895.888 510.893 901.114 515.8C906.448 520.707 909.114 526.787 909.114 534.04C909.114 539.587 907.514 544.6 904.314 549.08C901.114 553.56 896.688 557.133 891.034 559.8C885.381 562.36 879.088 563.64 872.154 563.64C869.168 563.64 865.754 563.48 861.914 563.16C860.421 563.053 858.554 562.947 856.314 562.84C854.181 562.733 851.781 562.68 849.114 562.68L837.434 562.84C835.301 562.947 832.421 563 828.794 563C828.474 563 828.314 562.68 828.314 562.04C828.314 561.4 828.474 561.08 828.794 561.08C831.888 561.08 834.234 560.813 835.834 560.28C837.434 559.64 838.554 558.573 839.194 557.08C839.941 555.48 840.314 553.133 840.314 550.04V475.96C840.314 471.48 839.568 468.547 838.074 467.16C836.581 465.667 833.541 464.92 828.954 464.92C828.741 464.92 828.634 464.6 828.634 463.96C828.634 463.32 828.741 463 828.954 463L837.434 463.16C842.341 463.373 846.234 463.48 849.114 463.48C852.101 463.48 855.194 463.32 858.394 463C859.461 462.893 861.061 462.787 863.194 462.68C865.328 462.573 867.194 462.52 868.794 462.52C878.501 462.52 886.021 464.28 891.354 467.8C896.688 471.32 899.354 476.44 899.354 483.16C899.354 488.28 897.648 492.92 894.234 497.08C890.928 501.24 886.128 504.493 879.834 506.84ZM866.394 466.04C863.301 466.04 861.168 466.787 859.994 468.28C858.821 469.667 858.234 472.333 858.234 476.28V506.68L864.634 506.84C870.181 506.84 874.448 504.76 877.434 500.6C880.421 496.44 881.914 491.107 881.914 484.6C881.914 478.52 880.581 473.933 877.914 470.84C875.248 467.64 871.408 466.04 866.394 466.04ZM869.434 559.64C883.408 559.64 890.394 552.387 890.394 537.88C890.394 529.667 888.421 523.16 884.474 518.36C880.528 513.56 874.554 511.16 866.554 511.16C863.461 511.16 860.688 511.267 858.234 511.48V550.04C858.234 553.56 858.928 556.067 860.314 557.56C861.701 558.947 864.741 559.64 869.434 559.64ZM955.311 565.08C948.697 565.08 942.884 563.587 937.871 560.6C932.964 557.507 929.177 553.4 926.511 548.28C923.844 543.053 922.511 537.4 922.511 531.32C922.511 524.387 924.271 518.52 927.791 513.72C931.311 508.813 935.791 505.187 941.231 502.84C946.671 500.387 952.271 499.16 958.031 499.16C964.644 499.16 970.404 500.707 975.311 503.8C980.217 506.893 983.951 511 986.511 516.12C989.177 521.133 990.511 526.52 990.511 532.28C990.511 538.68 988.911 544.387 985.711 549.4C982.511 554.307 978.191 558.147 972.751 560.92C967.417 563.693 961.604 565.08 955.311 565.08ZM960.111 561.72C964.271 561.72 967.417 559.693 969.551 555.64C971.791 551.48 972.911 545.56 972.911 537.88C972.911 530.413 971.951 524.013 970.031 518.68C968.111 513.347 965.604 509.347 962.511 506.68C959.417 503.907 956.111 502.52 952.591 502.52C944.057 502.52 939.791 510.147 939.791 525.4C939.791 532.547 940.697 538.893 942.511 544.44C944.324 549.88 946.777 554.147 949.871 557.24C952.964 560.227 956.377 561.72 960.111 561.72ZM1033.59 565.08C1026.98 565.08 1021.17 563.587 1016.15 560.6C1011.25 557.507 1007.46 553.4 1004.79 548.28C1002.13 543.053 1000.79 537.4 1000.79 531.32C1000.79 524.387 1002.55 518.52 1006.07 513.72C1009.59 508.813 1014.07 505.187 1019.51 502.84C1024.95 500.387 1030.55 499.16 1036.31 499.16C1042.93 499.16 1048.69 500.707 1053.59 503.8C1058.5 506.893 1062.23 511 1064.79 516.12C1067.46 521.133 1068.79 526.52 1068.79 532.28C1068.79 538.68 1067.19 544.387 1063.99 549.4C1060.79 554.307 1056.47 558.147 1051.03 560.92C1045.7 563.693 1039.89 565.08 1033.59 565.08ZM1038.39 561.72C1042.55 561.72 1045.7 559.693 1047.83 555.64C1050.07 551.48 1051.19 545.56 1051.19 537.88C1051.19 530.413 1050.23 524.013 1048.31 518.68C1046.39 513.347 1043.89 509.347 1040.79 506.68C1037.7 503.907 1034.39 502.52 1030.87 502.52C1022.34 502.52 1018.07 510.147 1018.07 525.4C1018.07 532.547 1018.98 538.893 1020.79 544.44C1022.61 549.88 1025.06 554.147 1028.15 557.24C1031.25 560.227 1034.66 561.72 1038.39 561.72ZM1153.47 561.08C1153.79 561.08 1153.95 561.4 1153.95 562.04C1153.95 562.68 1153.79 563 1153.47 563C1150.7 563 1148.51 562.947 1146.91 562.84L1137.31 562.68L1124.99 562.84C1123.18 562.947 1120.73 563 1117.63 563C1117.31 563 1117.15 562.68 1117.15 562.04C1117.15 561.4 1117.31 561.08 1117.63 561.08C1121.47 561.08 1123.39 559.96 1123.39 557.72C1123.39 556.547 1122.97 555.48 1122.11 554.52L1103.87 531.16L1100.83 533.88V550.04C1100.83 554.307 1101.42 557.24 1102.59 558.84C1103.87 560.333 1106.17 561.08 1109.47 561.08C1109.9 561.08 1110.11 561.4 1110.11 562.04C1110.11 562.68 1109.9 563 1109.47 563C1106.7 563 1104.46 562.947 1102.75 562.84L1093.47 562.68L1083.87 562.84C1082.27 562.947 1080.09 563 1077.31 563C1077.1 563 1076.99 562.68 1076.99 562.04C1076.99 561.4 1077.1 561.08 1077.31 561.08C1080.62 561.08 1082.86 560.333 1084.03 558.84C1085.31 557.24 1085.95 554.307 1085.95 550.04V468.76C1085.95 465.027 1085.58 462.36 1084.83 460.76C1084.19 459.16 1083.02 458.36 1081.31 458.36C1079.82 458.36 1077.79 458.947 1075.23 460.12H1075.07C1074.75 460.12 1074.43 459.853 1074.11 459.32C1073.9 458.68 1073.9 458.307 1074.11 458.2L1097.47 447.16L1098.27 447C1098.81 447 1099.34 447.267 1099.87 447.8C1100.51 448.227 1100.83 448.653 1100.83 449.08V530.2L1115.71 515.8C1118.49 513.24 1119.87 510.627 1119.87 507.96C1119.87 506.573 1119.34 505.453 1118.27 504.6C1117.21 503.64 1115.71 503.16 1113.79 503.16C1113.58 503.16 1113.47 502.84 1113.47 502.2C1113.47 501.56 1113.58 501.24 1113.79 501.24C1116.89 501.24 1119.29 501.293 1120.99 501.4L1133.63 501.56L1145.31 501.4C1146.81 501.293 1148.89 501.24 1151.55 501.24C1151.87 501.24 1152.03 501.56 1152.03 502.2C1152.03 502.84 1151.87 503.16 1151.55 503.16C1146.97 503.16 1141.69 504.333 1135.71 506.68C1129.85 508.92 1124.57 512.227 1119.87 516.6L1114.11 521.88L1136.03 550.04C1139.13 553.88 1142.06 556.707 1144.83 558.52C1147.71 560.227 1150.59 561.08 1153.47 561.08Z" fill="#DA002E"/>
</svg>
