<svg width="1440" height="1024" viewBox="0 0 1440 1024" fill="none" xmlns="http://www.w3.org/2000/svg">
<rect width="1440" height="1024" fill="#38B44E"/>
<path fill-rule="evenodd" clip-rule="evenodd" d="M546.481 468.141C547.003 470.709 545.345 473.215 542.777 473.737L512.553 479.886C509.985 480.409 507.48 478.75 506.957 476.182C506.435 473.614 508.093 471.109 510.661 470.587L540.885 464.437C543.453 463.915 545.958 465.573 546.481 468.141Z" fill="white"/>
<path fill-rule="evenodd" clip-rule="evenodd" d="M543.933 472.092C546.501 471.57 548.159 469.065 547.637 466.497L541.488 436.273C540.965 433.705 538.46 432.047 535.892 432.569C533.324 433.092 531.666 435.597 532.188 438.165L538.337 468.389C538.86 470.957 541.365 472.615 543.933 472.092Z" fill="white"/>
<path d="M492.136 578C478.676 578 466.632 575.083 456.005 569.249C445.379 563.416 437.054 555.351 431.033 545.056C425.011 534.59 422 522.836 422 509.796C422 496.584 425.011 484.831 431.033 474.536C437.054 464.07 445.379 456.005 456.005 450.343C466.632 444.509 478.676 441.592 492.136 441.592C503.294 441.592 513.39 443.737 522.422 448.027C531.632 452.145 539.071 458.236 544.738 466.3L534.909 473.249C529.95 466.558 523.751 461.582 516.312 458.322C509.05 454.89 500.992 453.174 492.136 453.174C481.332 453.174 471.591 455.576 462.913 460.381C454.411 465.013 447.681 471.619 442.722 480.198C437.94 488.777 435.549 498.643 435.549 509.796C435.549 520.949 437.94 530.815 442.722 539.394C447.681 547.973 454.411 554.665 462.913 559.469C471.591 564.102 481.332 566.418 492.136 566.418C500.992 566.418 509.05 564.788 516.312 561.528C523.751 558.097 529.95 553.035 534.909 546.343L544.738 553.292C539.071 561.357 531.632 567.534 522.422 571.823C513.39 575.941 503.294 578 492.136 578Z" fill="white"/>
<path d="M608.737 386H622.021V576.971H608.737V386Z" fill="white"/>
<path d="M821.734 512.885H702.45C702.804 523.351 705.549 532.702 710.685 540.938C715.821 549.003 722.729 555.265 731.407 559.727C740.263 564.188 750.181 566.418 761.162 566.418C770.195 566.418 778.519 564.874 786.135 561.786C793.928 558.525 800.392 553.807 805.529 547.63L813.233 556.123C807.211 563.158 799.595 568.563 790.386 572.338C781.353 576.113 771.523 578 760.896 578C747.082 578 734.772 575.083 723.969 569.249C713.165 563.416 704.663 555.351 698.465 545.056C692.443 534.761 689.432 523.008 689.432 509.796C689.432 496.756 692.266 485.088 697.933 474.794C703.778 464.327 711.748 456.177 721.843 450.343C731.939 444.509 743.274 441.592 755.849 441.592C768.424 441.592 779.67 444.509 789.589 450.343C799.684 456.005 807.565 463.984 813.233 474.279C819.078 484.574 822 496.241 822 509.282L821.734 512.885ZM755.849 452.917C746.108 452.917 737.341 455.062 729.548 459.351C721.755 463.469 715.467 469.389 710.685 477.11C706.08 484.66 703.424 493.239 702.715 502.847H808.982C808.451 493.239 805.794 484.66 801.012 477.11C796.23 469.56 789.943 463.641 782.15 459.351C774.357 455.062 765.59 452.917 755.849 452.917Z" fill="white"/>
<path fill-rule="evenodd" clip-rule="evenodd" d="M954 638H944V482.776C944 480.138 946.239 478 949 478C951.761 478 954 480.138 954 482.776V638Z" fill="white"/>
<path fill-rule="evenodd" clip-rule="evenodd" d="M948.256 514.661C946.164 513.084 945.745 510.109 947.323 508.016L971.596 475.805C973.173 473.712 976.148 473.293 978.241 474.871C980.334 476.448 980.752 479.423 979.175 481.516L954.902 513.727C953.325 515.82 950.349 516.238 948.256 514.661Z" fill="white"/>
<path fill-rule="evenodd" clip-rule="evenodd" d="M948.346 550.414C946.445 548.61 946.366 545.607 948.17 543.706L964.501 526.496C966.305 524.595 969.309 524.517 971.21 526.321C973.111 528.124 973.189 531.128 971.385 533.029L955.054 550.238C953.25 552.139 950.247 552.218 948.346 550.414Z" fill="white"/>
<path fill-rule="evenodd" clip-rule="evenodd" d="M951.559 534.555C949.857 536.547 946.862 536.783 944.869 535.081L921.416 515.05C919.423 513.348 919.188 510.353 920.889 508.361C922.591 506.368 925.587 506.132 927.579 507.834L951.032 527.865C953.025 529.567 953.261 532.562 951.559 534.555Z" fill="white"/>
<path fill-rule="evenodd" clip-rule="evenodd" d="M949 566.19C980.537 566.19 1006.1 540.809 1006.1 509.5C1006.1 478.191 980.537 452.81 949 452.81C917.463 452.81 891.897 478.191 891.897 509.5C891.897 540.809 917.463 566.19 949 566.19ZM949 578C987.108 578 1018 547.332 1018 509.5C1018 471.668 987.108 441 949 441C910.892 441 880 471.668 880 509.5C880 547.332 910.892 578 949 578Z" fill="white"/>
</svg>
