<svg width="761" height="761" viewBox="0 0 761 761" fill="none" xmlns="http://www.w3.org/2000/svg">
<path d="M185 384C236.711 152.559 520.544 159.467 578 384" stroke="#363636" stroke-width="20"/>
<path d="M185 384C236.711 152.559 520.544 159.467 578 384" stroke="#363636" stroke-width="20"/>
<line x1="170" y1="215" x2="586" y2="215" stroke="#363636" stroke-width="20"/>
<circle cx="172.5" cy="212.5" r="26.5" fill="#89C064"/>
<circle cx="589.5" cy="212.5" r="26.5" fill="#89C064"/>
<rect x="356" y="192" width="46" height="46" fill="#89C064"/>
<rect x="169" y="363" width="46" height="46" fill="#89C064"/>
<rect x="549" y="363" width="46" height="46" fill="#89C064"/>
<path fill-rule="evenodd" clip-rule="evenodd" d="M379.276 531.164H321.819C316.603 474.259 311.363 448.763 296.538 418.548C333.267 369.538 348.566 334.461 364.338 255.369H382.724L394.215 255.369C409.987 334.461 425.286 369.538 462.015 418.548C447.19 448.763 441.95 474.259 436.733 531.164H382.724H379.276ZM397.663 394.416C397.663 404.57 389.431 412.802 379.276 412.802C369.122 412.802 360.89 404.57 360.89 394.416C360.89 385.179 367.701 377.533 376.575 376.226V255.369H381.575V376.172C390.644 377.303 397.663 385.04 397.663 394.416Z" fill="#363636"/>
<rect x="314" y="531" width="132" height="153" fill="#89C064"/>
</svg>
