<svg width="200" height="200" viewBox="0 0 200 200" fill="none" xmlns="http://www.w3.org/2000/svg">
<path d="M31 123V125H33H51.0826H53.0826V123V78.1451C53.0826 72.0652 54.1741 67.3962 56.1854 63.9843C58.2819 60.4281 60.846 57.9025 63.8519 56.3028C66.9814 54.6374 70.0412 53.8392 73.0521 53.8392C77.5654 53.8392 81.1727 55.2052 84.0276 57.8574L84.0537 57.8817L84.0806 57.905C86.8246 60.2779 88.4587 64.5186 88.4587 71.2314V123V125H90.4587H108.541H110.541V123V77.1333C110.541 69.2772 112.637 63.6306 116.526 59.8497L116.536 59.8406L116.545 59.8314C120.589 55.7966 125.216 53.8392 130.511 53.8392C135.024 53.8392 138.631 55.2052 141.486 57.8574L141.512 57.8817L141.539 57.905C144.283 60.2779 145.917 64.5186 145.917 71.2314V123V125H147.917H166H168V123V68.3647C168 60.9081 166.482 54.6028 163.294 49.5861C160.172 44.6733 156.06 40.9831 150.973 38.5661C145.964 36.1861 140.6 35 134.905 35C130.97 35 126.997 35.6534 122.993 36.9434C118.928 38.1399 115.217 40.0535 111.87 42.677C109.44 44.5825 107.383 46.8288 105.703 49.4065C103.032 45.1278 99.4456 41.797 94.9545 39.4539C89.5791 36.4791 83.6737 35 77.277 35C71.4301 35 65.8744 36.3726 60.6354 39.1052L60.627 39.1095L60.6187 39.114C57.1086 40.9874 54.0835 43.5373 51.5383 46.7343L51.0511 38.5672L50.9389 36.6863H49.0546H33H31V38.6863V123Z" fill="#363636" stroke="#363636" stroke-width="4"/>
<path d="M29 163H170.003" stroke="#363636" stroke-width="22"/>
</svg>
