<svg width="1440" height="1024" viewBox="0 0 1440 1024" fill="none" xmlns="http://www.w3.org/2000/svg">
<rect width="1440" height="1024" fill="#B6006C"/>
<path d="M685 555.347L703.223 464.013H758.674L755.68 478.668H716.761L712.075 502.09H746.829L743.835 516.746H709.081L701.401 555.347H685Z" fill="white"/>
<path d="M766.713 555.347C763.329 555.347 760.639 554.475 758.643 552.73C756.734 550.898 755.779 548.499 755.779 545.533C755.779 545.01 755.779 544.573 755.779 544.225C755.866 543.788 755.996 543.178 756.169 542.393L772.831 458.517H788.581L771.92 542.393H780.641L778.168 555.347H766.713Z" fill="white"/>
<path d="M837.717 487.043H854.508L811.553 567.647C810.338 570.002 809.037 572.052 807.648 573.797C806.347 575.542 804.871 576.981 803.223 578.115C801.574 579.249 799.665 580.078 797.495 580.601C795.413 581.212 792.983 581.517 790.206 581.517H780.053L782.526 568.563H795.022L800.099 558.749L790.206 487.043H805.826L809.08 515.045L811.423 540.43H812.074L823.789 515.045L837.717 487.043Z" fill="white"/>
<path d="M912.078 464.013L901.014 519.363C900.667 520.933 900.407 522.416 900.233 523.812C900.06 525.208 899.973 526.56 899.973 527.868C899.973 532.579 901.188 536.155 903.617 538.598C906.134 540.953 909.692 542.131 914.291 542.131C920.279 542.131 924.878 540.343 928.089 536.766C931.386 533.189 933.816 527.476 935.378 519.625L946.442 464.013H962.843L951.779 519.363C950.477 525.993 948.785 531.663 946.702 536.373C944.62 541.084 942.016 544.966 938.893 548.019C935.855 551.072 932.211 553.34 927.959 554.823C923.793 556.219 918.934 556.917 913.38 556.917C903.921 556.917 896.675 554.518 891.642 549.72C886.609 544.835 884.092 537.682 884.092 528.261C884.092 526.516 884.179 524.64 884.353 522.634C884.526 520.628 884.873 518.447 885.394 516.092L895.677 464.013H912.078Z" fill="white"/>
<path d="M1030.91 555.347H1013.33L999.667 521.849H998.756L973.504 555.347H954.499L992.117 507.455L973.243 464.013H990.816L1004.09 496.333H1005L1030 464.013H1049L1011.38 510.072L1030.91 555.347Z" fill="white"/>
<circle cx="514.908" cy="511.908" r="122.908" fill="white"/>
<path d="M521.727 581.231C521.727 581.231 552.268 508.975 555.248 505.997C558.227 503.018 614.095 478.437 617.074 472.476C620.054 466.516 607.391 453.854 579.829 461.303C552.268 468.752 452.452 517.915 452.452 517.915C446.442 521.055 443.314 521.241 438.299 517.915C438.299 517.915 424.891 507.487 421.911 505.252C418.932 503.017 405.523 502.272 407.013 505.997C408.503 509.721 421.911 543.242 426.38 546.966C430.85 550.691 449.419 549.415 466.605 543.987C466.605 543.987 512.788 523.131 515.023 525.364C517.258 527.598 501.615 594.638 503.85 594.64C506.084 594.641 517.194 588.309 521.727 581.231Z" fill="#B6006C"/>
<path d="M458.411 476.201C462.136 479.179 490.442 495.568 490.442 495.568L520.238 482.16L480.013 470.242C471.321 469.108 454.686 473.222 458.411 476.201Z" fill="#B6006C"/>
</svg>
