<svg width="761" height="761" viewBox="0 0 761 761" fill="none" xmlns="http://www.w3.org/2000/svg">
<path d="M227 262H448V562H227V262Z" fill="#89C064"/>
<path d="M425 205H544V507H425V205Z" fill="#89C064"/>
<path d="M425 547H494V499H425V547Z" fill="#89C064"/>
<path fill-rule="evenodd" clip-rule="evenodd" d="M379.318 169.148C376.908 168.749 374.435 169.162 372.286 170.323L226.718 249.009C224.519 250.198 222.977 251.886 222.043 253.793C211.478 269.401 205.966 284.542 206.178 302.683C206.364 318.534 210.937 335.79 218.403 356.474C209.816 373.262 205.612 388.418 206.028 404.621C206.433 420.364 211.2 435.92 218.306 453.434C210.388 469.644 206.069 484.423 206.193 500.388C206.33 517.974 211.864 535.456 220.877 556.127C222.778 560.488 226.633 563.392 230.969 564.262C231.572 564.442 232.194 564.584 232.834 564.684L405.724 591.772C409.223 592.32 412.621 591.522 415.392 589.762C416.841 589.422 418.26 588.843 419.593 588.012L547.761 508.175C554.324 504.087 556.33 495.453 552.242 488.89C548.154 482.327 539.52 480.321 532.957 484.409L406.023 563.477L243.629 538.034C237.14 522.099 234.273 510.58 234.192 500.17C234.122 491.226 236.111 482.187 241.03 470.969L405.724 496.772C409.223 497.32 412.621 496.522 415.392 494.762C416.841 494.422 418.26 493.843 419.593 493.012L547.761 413.175C554.324 409.087 556.33 400.453 552.242 393.89C548.154 387.327 539.52 385.321 532.957 389.409L406.023 468.477L244.351 443.147C237.612 426.549 234.297 414.716 234.019 403.901C233.779 394.577 235.792 385.067 241.457 373.035L405.724 398.772C409.223 399.32 412.621 398.522 415.392 396.762C416.841 396.422 418.26 395.843 419.593 395.012L547.761 315.175C554.324 311.087 556.33 302.453 552.242 295.89C548.154 289.327 539.52 287.321 532.957 291.409L406.023 370.477L244.074 345.104C237.387 326.278 234.303 313.142 234.177 302.356C234.052 291.727 236.804 282.558 243.846 271.587L406.787 295.95C409.303 296.326 411.872 295.818 414.056 294.513L544.963 216.291C553.756 211.037 551.226 197.674 541.122 195.997L379.318 169.148Z" fill="#363636"/>
<path d="M372.286 170.323L370.146 166.365L370.146 166.365L372.286 170.323ZM379.318 169.148L380.054 164.709V164.709L379.318 169.148ZM226.718 249.009L224.578 245.051L226.718 249.009ZM222.043 253.793L225.769 256.315C225.887 256.142 225.992 255.961 226.084 255.773L222.043 253.793ZM206.178 302.683L201.679 302.736L206.178 302.683ZM218.403 356.474L222.409 358.523C222.977 357.413 223.058 356.118 222.635 354.946L218.403 356.474ZM206.028 404.621L201.53 404.736L206.028 404.621ZM218.306 453.434L222.349 455.409C222.91 454.261 222.956 452.927 222.476 451.743L218.306 453.434ZM206.193 500.388L210.693 500.353L206.193 500.388ZM220.877 556.127L225.002 554.329L220.877 556.127ZM230.969 564.262L232.259 559.951C232.126 559.911 231.991 559.877 231.854 559.85L230.969 564.262ZM232.834 564.684L233.53 560.239H233.53L232.834 564.684ZM405.724 591.772L405.028 596.218L405.724 591.772ZM415.392 589.762L414.363 585.382C413.873 585.497 413.405 585.693 412.98 585.964L415.392 589.762ZM419.593 588.012L417.214 584.193H417.214L419.593 588.012ZM547.761 508.175L550.14 511.995L547.761 508.175ZM532.957 484.409L535.336 488.229L532.957 484.409ZM406.023 563.477L405.327 567.923C406.394 568.09 407.485 567.868 408.402 567.297L406.023 563.477ZM243.629 538.034L239.461 539.731C240.056 541.193 241.373 542.236 242.932 542.48L243.629 538.034ZM234.192 500.17L229.692 500.205L234.192 500.17ZM241.03 470.969L241.726 466.523C239.708 466.207 237.729 467.29 236.909 469.162L241.03 470.969ZM405.724 496.772L405.028 501.218L405.724 496.772ZM415.392 494.762L414.363 490.382C413.873 490.497 413.405 490.693 412.98 490.964L415.392 494.762ZM419.593 493.012L417.214 489.193H417.214L419.593 493.012ZM547.761 413.175L545.382 409.356L547.761 413.175ZM552.242 393.89L548.423 396.269V396.269L552.242 393.89ZM532.957 389.409L530.578 385.589L532.957 389.409ZM406.023 468.477L405.327 472.923C406.394 473.09 407.485 472.868 408.402 472.297L406.023 468.477ZM244.351 443.147L240.181 444.84C240.775 446.304 242.094 447.349 243.654 447.593L244.351 443.147ZM234.019 403.901L229.52 404.017L234.019 403.901ZM241.457 373.035L242.153 368.59C240.179 368.28 238.237 369.31 237.386 371.119L241.457 373.035ZM405.724 398.772L405.028 403.218L405.724 398.772ZM415.392 396.762L414.363 392.381C413.873 392.497 413.405 392.693 412.98 392.963L415.392 396.762ZM419.593 395.012L417.214 391.193L417.214 391.193L419.593 395.012ZM547.761 315.175L545.382 311.356L547.761 315.175ZM552.242 295.89L548.423 298.269V298.269L552.242 295.89ZM532.957 291.409L530.578 287.589L532.957 291.409ZM406.023 370.477L405.327 374.923C406.394 375.09 407.485 374.868 408.402 374.297L406.023 370.477ZM244.074 345.104L239.833 346.61C240.386 348.166 241.746 349.294 243.377 349.55L244.074 345.104ZM234.177 302.356L229.677 302.408L234.177 302.356ZM243.846 271.587L244.511 267.137C242.759 266.875 241.016 267.665 240.059 269.156L243.846 271.587ZM406.787 295.95L406.121 300.4H406.121L406.787 295.95ZM414.056 294.513L416.364 298.376L414.056 294.513ZM544.963 216.291L547.272 220.154V220.154L544.963 216.291ZM541.122 195.997L540.385 200.436V200.436L541.122 195.997ZM374.426 174.282C375.696 173.596 377.157 173.351 378.581 173.588L380.054 164.709C376.659 164.146 373.174 164.728 370.146 166.365L374.426 174.282ZM228.857 252.968L374.426 174.282L370.146 166.365L224.578 245.051L228.857 252.968ZM226.084 255.773C226.606 254.707 227.484 253.71 228.857 252.968L224.578 245.051C221.554 246.685 219.348 249.066 218.002 251.812L226.084 255.773ZM210.678 302.63C210.479 285.589 215.606 271.331 225.769 256.315L218.316 251.27C207.351 267.471 201.454 283.494 201.679 302.736L210.678 302.63ZM222.635 354.946C215.213 334.384 210.854 317.706 210.678 302.63L201.679 302.736C201.873 319.362 206.66 337.196 214.17 358.002L222.635 354.946ZM210.527 404.505C210.135 389.243 214.066 374.833 222.409 358.523L214.396 354.425C205.565 371.691 201.089 387.594 201.53 404.736L210.527 404.505ZM222.476 451.743C215.433 434.385 210.91 419.43 210.527 404.505L201.53 404.736C201.955 421.297 206.967 437.456 214.136 455.126L222.476 451.743ZM210.693 500.353C210.576 485.293 214.629 471.214 222.349 455.409L214.262 451.459C206.146 468.075 201.562 483.552 201.693 500.423L210.693 500.353ZM225.002 554.329C216.064 533.828 210.822 517.019 210.693 500.353L201.693 500.423C201.837 518.929 207.665 537.083 216.752 557.926L225.002 554.329ZM231.854 559.85C228.899 559.257 226.291 557.284 225.002 554.329L216.752 557.926C219.266 563.692 224.368 567.528 230.084 568.674L231.854 559.85ZM229.679 568.573C230.476 568.812 231.297 568.999 232.137 569.13L233.53 560.239C233.092 560.17 232.668 560.073 232.259 559.951L229.679 568.573ZM232.137 569.13L405.028 596.218L406.421 587.326L233.53 560.239L232.137 569.13ZM405.028 596.218C409.647 596.942 414.145 595.885 417.804 593.561L412.98 585.964C411.096 587.16 408.798 587.699 406.421 587.326L405.028 596.218ZM416.421 594.143C418.341 593.692 420.217 592.925 421.972 591.832L417.214 584.193C416.302 584.76 415.34 585.152 414.363 585.382L416.421 594.143ZM421.972 591.832L550.14 511.995L545.382 504.356L417.214 584.193L421.972 591.832ZM550.14 511.995C558.813 506.593 561.464 495.183 556.062 486.511L548.423 491.269C551.197 495.723 549.835 501.582 545.382 504.356L550.14 511.995ZM556.062 486.511C550.66 477.838 539.25 475.187 530.578 480.589L535.336 488.229C539.79 485.455 545.649 486.816 548.423 491.269L556.062 486.511ZM530.578 480.589L403.644 559.658L408.402 567.297L535.336 488.229L530.578 480.589ZM406.72 559.032L244.325 533.588L242.932 542.48L405.327 567.923L406.72 559.032ZM229.692 500.205C229.779 511.437 232.879 523.567 239.461 539.731L247.797 536.337C241.402 520.632 238.766 509.723 238.692 500.135L229.692 500.205ZM236.909 469.162C231.798 480.818 229.617 490.487 229.692 500.205L238.692 500.135C238.628 491.964 240.424 483.557 245.151 472.776L236.909 469.162ZM240.333 475.414L405.028 501.218L406.421 492.326L241.726 466.523L240.333 475.414ZM405.028 501.218C409.647 501.942 414.145 500.885 417.804 498.561L412.98 490.964C411.096 492.16 408.798 492.699 406.421 492.326L405.028 501.218ZM416.421 499.143C418.341 498.692 420.217 497.925 421.972 496.832L417.214 489.193C416.302 489.76 415.34 490.152 414.363 490.382L416.421 499.143ZM421.972 496.832L550.14 416.995L545.382 409.356L417.214 489.193L421.972 496.832ZM550.14 416.995C558.813 411.593 561.464 400.183 556.062 391.511L548.423 396.269C551.197 400.723 549.835 406.582 545.382 409.356L550.14 416.995ZM556.062 391.511C550.66 382.838 539.25 380.187 530.578 385.589L535.336 393.229C539.79 390.455 545.649 391.816 548.423 396.269L556.062 391.511ZM530.578 385.589L403.644 464.658L408.402 472.297L535.336 393.229L530.578 385.589ZM406.72 464.032L245.047 438.702L243.654 447.593L405.327 472.923L406.72 464.032ZM229.52 404.017C229.82 415.659 233.385 428.101 240.181 444.84L248.52 441.454C241.838 424.998 238.774 413.773 238.517 403.786L229.52 404.017ZM237.386 371.119C231.484 383.652 229.259 393.858 229.52 404.017L238.517 403.786C238.299 395.297 240.1 386.482 245.528 374.952L237.386 371.119ZM240.76 377.481L405.028 403.218L406.421 394.326L242.153 368.59L240.76 377.481ZM405.028 403.218C409.647 403.942 414.145 402.885 417.804 400.561L412.98 392.963C411.096 394.16 408.798 394.699 406.421 394.326L405.028 403.218ZM416.421 401.143C418.341 400.692 420.217 399.925 421.972 398.832L417.214 391.193C416.302 391.76 415.34 392.152 414.363 392.381L416.421 401.143ZM421.972 398.832L550.14 318.995L545.382 311.356L417.214 391.193L421.972 398.832ZM550.14 318.995C558.813 313.593 561.464 302.183 556.062 293.511L548.423 298.269C551.197 302.723 549.835 308.582 545.382 311.356L550.14 318.995ZM556.062 293.511C550.66 284.838 539.25 282.187 530.578 287.589L535.336 295.229C539.79 292.455 545.649 293.816 548.423 298.269L556.062 293.511ZM530.578 287.589L403.644 366.658L408.402 374.297L535.336 295.229L530.578 287.589ZM406.72 366.032L244.77 340.658L243.377 349.55L405.327 374.923L406.72 366.032ZM229.677 302.408C229.812 313.955 233.102 327.66 239.833 346.61L248.314 343.598C241.671 324.897 238.793 312.328 238.676 302.303L229.677 302.408ZM240.059 269.156C232.62 280.747 229.541 290.767 229.677 302.408L238.676 302.303C238.564 292.687 240.989 284.369 247.633 274.018L240.059 269.156ZM407.452 291.499L244.511 267.137L243.18 276.038L406.121 300.4L407.452 291.499ZM411.748 290.65C410.457 291.422 408.939 291.722 407.452 291.499L406.121 300.4C409.667 300.93 413.287 300.215 416.364 298.376L411.748 290.65ZM542.655 212.429L411.748 290.65L416.364 298.376L547.272 220.154L542.655 212.429ZM540.385 200.436C546.356 201.427 547.851 209.324 542.655 212.429L547.272 220.154C559.661 212.751 556.097 193.921 541.858 191.558L540.385 200.436ZM378.581 173.588L540.385 200.436L541.858 191.558L380.054 164.709L378.581 173.588Z" fill="#363636"/>
</svg>
