<svg width="1200" height="630" viewBox="0 0 1200 630" fill="none" xmlns="http://www.w3.org/2000/svg">
<rect width="1200" height="630" fill="#1E255C"/>
<path d="M266 434.786H284.895C291.899 434.786 297.079 436.28 300.435 439.269C303.839 442.259 305.541 446.405 305.541 451.708C305.541 456.963 303.839 461.11 300.435 464.147C297.079 467.185 291.899 468.703 284.895 468.703H280.153V485.409H266V434.786ZM284.895 446.14H280.153V457.349H284.895C287.181 457.349 288.908 456.867 290.075 455.903C291.291 454.89 291.899 453.492 291.899 451.708C291.899 447.996 289.564 446.14 284.895 446.14Z" fill="#7D83FF"/>
<path d="M327.884 486.132C321.61 486.132 316.698 484.589 313.147 481.504C309.597 478.37 307.822 474.127 307.822 468.776C307.822 463.328 309.548 459.085 313.002 456.047C316.503 452.962 321.318 451.419 327.447 451.419C333.526 451.419 338.171 452.865 341.381 455.758C344.591 458.651 346.196 462.797 346.196 468.197C346.196 468.776 346.196 469.354 346.196 469.933C346.245 470.463 346.22 470.945 346.123 471.379H320.735C321.367 475.429 323.604 477.454 327.447 477.454C331.046 477.454 333.575 476.2 335.034 473.693L346.561 475.863C342.913 482.709 336.687 486.132 327.884 486.132ZM327.155 459.374C323.702 459.374 321.61 461.23 320.881 464.943H332.699C332.553 463.207 331.994 461.857 331.021 460.893C330.049 459.88 328.76 459.374 327.155 459.374Z" fill="#7D83FF"/>
<path d="M374.562 465.015C374.076 464.436 373.492 463.954 372.811 463.569C372.13 463.183 371.303 462.99 370.331 462.99C368.872 462.99 367.607 463.593 366.537 464.798C365.516 465.955 365.005 467.739 365.005 470.15V485.409H352.603V452.142H365.005V456.409C366.075 454.818 367.388 453.564 368.945 452.648C370.55 451.732 372.203 451.274 373.906 451.274C375.121 451.274 376.289 451.564 377.407 452.142C378.575 452.672 379.401 453.347 379.888 454.167L374.562 465.015Z" fill="#7D83FF"/>
<path d="M386.063 472.753C389.078 475.067 391.559 476.538 393.504 477.165C395.45 477.791 396.86 478.105 397.735 478.105C399.535 478.105 400.435 477.406 400.435 476.007C400.435 475.429 400.24 474.947 399.851 474.561C399.511 474.127 398.83 473.693 397.808 473.259C396.836 472.825 395.377 472.295 393.431 471.668C391.826 471.138 390.294 470.463 388.835 469.643C387.425 468.824 386.257 467.739 385.333 466.389C384.409 464.991 383.947 463.207 383.947 461.037C383.947 457.952 385.163 455.589 387.595 453.95C390.075 452.263 393.237 451.419 397.079 451.419C400.046 451.419 402.745 451.853 405.177 452.721C407.609 453.589 409.919 454.649 412.107 455.903L408.387 464.292C406.879 462.942 405.128 461.833 403.134 460.965C401.189 460.097 399.511 459.663 398.1 459.663C397.176 459.663 396.52 459.832 396.13 460.17C395.741 460.507 395.547 460.917 395.547 461.399C395.547 462.46 396.203 463.207 397.517 463.641C398.83 464.075 400.824 464.798 403.499 465.81C405.152 466.437 406.685 467.136 408.095 467.908C409.554 468.679 410.721 469.716 411.597 471.017C412.521 472.271 412.983 473.934 412.983 476.007C412.983 479.768 411.864 482.54 409.627 484.324C407.39 486.108 404.18 487 399.997 487C396.301 487 392.945 486.47 389.929 485.409C386.962 484.397 384.142 483.047 381.467 481.359L386.063 472.753Z" fill="#7D83FF"/>
<path d="M416.826 468.776C416.826 465.208 417.677 462.122 419.38 459.519C421.082 456.915 423.416 454.914 426.383 453.516C429.399 452.07 432.803 451.347 436.597 451.347C440.391 451.347 443.771 452.07 446.738 453.516C449.704 454.914 452.039 456.915 453.741 459.519C455.443 462.122 456.295 465.208 456.295 468.776C456.295 472.295 455.443 475.357 453.741 477.96C452.039 480.564 449.704 482.589 446.738 484.035C443.771 485.433 440.391 486.132 436.597 486.132C432.803 486.132 429.399 485.433 426.383 484.035C423.416 482.589 421.082 480.564 419.38 477.96C417.677 475.357 416.826 472.295 416.826 468.776ZM429.885 468.776C429.885 471.09 430.542 472.874 431.855 474.127C433.217 475.381 434.797 476.007 436.597 476.007C438.445 476.007 440.026 475.381 441.339 474.127C442.652 472.874 443.309 471.09 443.309 468.776C443.309 466.461 442.652 464.677 441.339 463.424C440.026 462.122 438.445 461.471 436.597 461.471C434.797 461.471 433.217 462.122 431.855 463.424C430.542 464.677 429.885 466.461 429.885 468.776Z" fill="#7D83FF"/>
<path d="M484.277 465.16C484.277 463.424 483.961 462.098 483.329 461.182C482.745 460.218 481.651 459.736 480.046 459.736C478.538 459.736 477.322 460.194 476.398 461.11C475.523 461.978 475.085 463.328 475.085 465.16V485.409H462.391V452.142H475.085V457.06C476.058 455.324 477.371 453.95 479.025 452.938C480.727 451.877 482.842 451.347 485.372 451.347C489.749 451.347 492.862 452.431 494.71 454.601C496.607 456.771 497.555 459.856 497.555 463.858V485.409H484.277V465.16Z" fill="#7D83FF"/>
<path d="M509.654 463.135L505.642 454.89C507.782 453.974 510.238 453.131 513.01 452.359C515.831 451.539 518.846 451.13 522.056 451.13C525.12 451.13 527.868 451.564 530.3 452.431C532.781 453.299 534.726 454.553 536.137 456.192C537.547 457.783 538.252 459.76 538.252 462.122V485.409H526.288V480.781C525.315 482.516 523.832 483.842 521.837 484.758C519.843 485.674 517.63 486.132 515.199 486.132C513.01 486.132 510.992 485.746 509.143 484.975C507.344 484.155 505.885 482.974 504.766 481.431C503.647 479.84 503.088 477.912 503.088 475.646C503.088 472.464 504.207 469.957 506.444 468.125C508.73 466.293 511.989 465.377 516.22 465.377C518.214 465.377 520.087 465.569 521.837 465.955C523.588 466.341 525.072 466.847 526.288 467.474V465.087C526.288 463.641 525.801 462.508 524.829 461.688C523.904 460.82 522.397 460.387 520.305 460.387C518.895 460.387 517.436 460.555 515.928 460.893C514.469 461.23 513.156 461.616 511.989 462.05C510.87 462.484 510.092 462.845 509.654 463.135ZM515.782 474.995C515.782 476.104 516.196 476.948 517.022 477.526C517.849 478.105 518.798 478.394 519.868 478.394C521.327 478.394 522.689 477.96 523.953 477.092C525.218 476.176 525.972 474.802 526.215 472.97C524.464 472.199 522.543 471.813 520.451 471.813C518.798 471.813 517.606 472.102 516.877 472.681C516.147 473.211 515.782 473.983 515.782 474.995Z" fill="#7D83FF"/>
<path d="M545.961 429H558.655V485.409H545.961V429Z" fill="#7D83FF"/>
<path d="M757.798 463.858V485.409H745.104V465.16C745.104 463.424 744.837 462.098 744.302 461.182C743.767 460.218 742.843 459.736 741.529 459.736C740.362 459.736 739.389 460.194 738.611 461.11C737.833 461.978 737.444 463.328 737.444 465.16V485.409H724.823V465.16C724.823 463.424 724.531 462.098 723.947 461.182C723.412 460.218 722.488 459.736 721.175 459.736C720.008 459.736 719.035 460.194 718.257 461.11C717.479 461.978 717.09 463.328 717.09 465.16V485.409H704.979V452.142H717.09V457.06C718.062 455.276 719.351 453.878 720.956 452.865C722.561 451.853 724.555 451.347 726.938 451.347C729.662 451.347 731.778 451.805 733.285 452.721C734.793 453.589 735.863 454.89 736.495 456.626C737.76 454.938 739.292 453.637 741.092 452.721C742.94 451.805 745.007 451.347 747.293 451.347C751.33 451.347 754.077 452.431 755.537 454.601C757.044 456.771 757.798 459.856 757.798 463.858Z" fill="#7D83FF"/>
<path d="M764.002 468.776C764.002 465.208 764.853 462.122 766.555 459.519C768.257 456.915 770.592 454.914 773.559 453.516C776.574 452.07 779.979 451.347 783.772 451.347C787.566 451.347 790.946 452.07 793.913 453.516C796.88 454.914 799.214 456.915 800.917 459.519C802.619 462.122 803.47 465.208 803.47 468.776C803.47 472.295 802.619 475.357 800.917 477.96C799.214 480.564 796.88 482.589 793.913 484.035C790.946 485.433 787.566 486.132 783.772 486.132C779.979 486.132 776.574 485.433 773.559 484.035C770.592 482.589 768.257 480.564 766.555 477.96C764.853 475.357 764.002 472.295 764.002 468.776ZM777.06 468.776C777.06 471.09 777.717 472.874 779.03 474.127C780.392 475.381 781.973 476.007 783.772 476.007C785.62 476.007 787.201 475.381 788.514 474.127C789.828 472.874 790.484 471.09 790.484 468.776C790.484 466.461 789.828 464.677 788.514 463.424C787.201 462.122 785.62 461.471 783.772 461.471C781.973 461.471 780.392 462.122 779.03 463.424C777.717 464.677 777.06 466.461 777.06 468.776Z" fill="#7D83FF"/>
<path d="M805.992 452.142H812.047V440.571H824.157V452.142H830.139V462.267H824.157V485.409H812.047V462.267H805.992V452.142Z" fill="#7D83FF"/>
<path d="M833.555 440.065C833.555 438.088 834.26 436.521 835.671 435.364C837.081 434.159 838.759 433.556 840.705 433.556C842.699 433.556 844.377 434.159 845.739 435.364C847.149 436.521 847.854 438.088 847.854 440.065C847.854 441.993 847.149 443.56 845.739 444.766C844.377 445.923 842.699 446.501 840.705 446.501C838.759 446.501 837.081 445.923 835.671 444.766C834.26 443.56 833.555 441.993 833.555 440.065ZM834.577 452.142H846.833V485.409H834.577V452.142Z" fill="#7D83FF"/>
<path d="M853.271 468.776C853.271 465.208 854.122 462.122 855.825 459.519C857.527 456.915 859.861 454.914 862.828 453.516C865.844 452.07 869.248 451.347 873.042 451.347C876.836 451.347 880.216 452.07 883.183 453.516C886.149 454.914 888.484 456.915 890.186 459.519C891.888 462.122 892.74 465.208 892.74 468.776C892.74 472.295 891.888 475.357 890.186 477.96C888.484 480.564 886.149 482.589 883.183 484.035C880.216 485.433 876.836 486.132 873.042 486.132C869.248 486.132 865.844 485.433 862.828 484.035C859.861 482.589 857.527 480.564 855.825 477.96C854.122 475.357 853.271 472.295 853.271 468.776ZM866.33 468.776C866.33 471.09 866.987 472.874 868.3 474.127C869.662 475.381 871.242 476.007 873.042 476.007C874.89 476.007 876.471 475.381 877.784 474.127C879.097 472.874 879.754 471.09 879.754 468.776C879.754 466.461 879.097 464.677 877.784 463.424C876.471 462.122 874.89 461.471 873.042 461.471C871.242 461.471 869.662 462.122 868.3 463.424C866.987 464.677 866.33 466.461 866.33 468.776Z" fill="#7D83FF"/>
<path d="M920.722 465.16C920.722 463.424 920.406 462.098 919.774 461.182C919.19 460.218 918.096 459.736 916.491 459.736C914.983 459.736 913.767 460.194 912.843 461.11C911.968 461.978 911.53 463.328 911.53 465.16V485.409H898.836V452.142H911.53V457.06C912.503 455.324 913.816 453.95 915.47 452.938C917.172 451.877 919.287 451.347 921.817 451.347C926.194 451.347 929.307 452.431 931.155 454.601C933.052 456.771 934 459.856 934 463.858V485.409H920.722V465.16Z" fill="#7D83FF"/>
<path d="M596.749 435H614.759C620.835 435.048 625.428 436.532 628.539 439.454C631.65 442.375 632.938 446.493 632.404 451.808C632.063 455.4 630.873 458.441 628.831 460.931C626.838 463.421 624.213 465.337 620.956 466.677C617.7 467.97 613.981 468.641 609.801 468.689H604.843L601.926 485.282H588L596.749 435ZM613.446 446.206H608.78L606.811 457.411H610.967C613.009 457.411 614.759 456.932 616.217 455.975C617.724 454.969 618.648 453.58 618.988 451.808C619.279 450.085 618.915 448.72 617.894 447.714C616.873 446.708 615.391 446.206 613.446 446.206Z" fill="#F9FAFB"/>
<path d="M656.426 464.954C655.94 464.427 655.381 463.972 654.749 463.589C654.166 463.206 653.461 463.014 652.635 463.014C650.933 462.966 649.427 463.685 648.114 465.169C646.802 466.606 646.024 468.282 645.781 470.197V470.125L643.083 485.282H630.907L636.667 452.239H648.916L648.041 457.124C649.305 455.448 650.763 454.083 652.416 453.03C654.117 451.928 655.818 451.377 657.52 451.377C658.784 451.377 659.877 451.689 660.801 452.311C661.724 452.886 662.502 453.58 663.134 454.394L656.426 464.954Z" fill="#F9FAFB"/>
<path d="M662.347 468.761C662.833 465.313 664.072 462.296 666.065 459.71C668.107 457.124 670.683 455.113 673.794 453.676C676.905 452.239 680.283 451.521 683.929 451.521C687.477 451.521 690.588 452.263 693.262 453.748C695.984 455.185 698.025 457.196 699.386 459.782C700.796 462.368 701.282 465.361 700.845 468.761C700.407 472.208 699.168 475.225 697.126 477.811C695.085 480.397 692.508 482.408 689.397 483.845C686.286 485.282 682.908 486 679.263 486C675.714 486 672.579 485.282 669.857 483.845C667.183 482.361 665.142 480.325 663.732 477.739C662.371 475.154 661.909 472.161 662.347 468.761ZM675.106 468.761C674.863 470.676 675.179 472.352 676.054 473.789C676.978 475.177 678.363 475.896 680.21 475.944C682.106 475.992 683.807 475.321 685.314 473.932C686.87 472.496 687.793 470.772 688.085 468.761C688.328 466.845 687.988 465.193 687.064 463.804C686.189 462.368 684.828 461.625 682.981 461.577C681.085 461.53 679.36 462.224 677.804 463.661C676.297 465.049 675.398 466.749 675.106 468.761Z" fill="#F9FAFB"/>
<path fill-rule="evenodd" clip-rule="evenodd" d="M527.502 336.002V338.888C527.502 341.649 529.741 343.888 532.502 343.888H695.999C698.761 343.888 700.999 341.649 700.999 338.888V175.391C700.999 172.629 698.761 170.391 695.999 170.391H693.113V336.002H527.502Z" fill="#7D83FF"/>
<path fill-rule="evenodd" clip-rule="evenodd" d="M513.307 321.806V324.692C513.307 327.454 515.546 329.692 518.307 329.692H681.804C684.566 329.692 686.804 327.454 686.804 324.692V161.195C686.804 158.434 684.566 156.195 681.804 156.195H678.918V321.806H513.307Z" fill="#7D83FF"/>
<rect x="499.112" y="142" width="173.233" height="173.233" rx="5" fill="#7D83FF"/>
<path fill-rule="evenodd" clip-rule="evenodd" d="M605.445 268.277C610.766 268.277 615.079 263.917 615.079 258.54C615.079 253.162 610.766 248.803 605.445 248.803C600.124 248.803 595.811 253.162 595.811 258.54C595.811 263.917 600.124 268.277 605.445 268.277ZM605.445 278.763C616.496 278.763 625.454 269.709 625.454 258.54C625.454 247.371 616.496 238.317 605.445 238.317C594.394 238.317 585.436 247.371 585.436 258.54C585.436 269.709 594.394 278.763 605.445 278.763Z" fill="#1E255C"/>
<path fill-rule="evenodd" clip-rule="evenodd" d="M620.267 263.783C617.402 263.783 615.079 261.435 615.079 258.54V198.621C615.079 195.725 617.402 193.378 620.267 193.378C623.132 193.378 625.454 195.725 625.454 198.621V258.54C625.454 261.435 623.132 263.783 620.267 263.783Z" fill="#1E255C"/>
<path fill-rule="evenodd" clip-rule="evenodd" d="M559.498 254.795C564.819 254.795 569.132 250.436 569.132 245.058C569.132 239.681 564.819 235.321 559.498 235.321C554.178 235.321 549.864 239.681 549.864 245.058C549.864 250.436 554.178 254.795 559.498 254.795ZM559.498 265.281C570.549 265.281 579.507 256.227 579.507 245.058C579.507 233.889 570.549 224.835 559.498 224.835C548.448 224.835 539.489 233.889 539.489 245.058C539.489 256.227 548.448 265.281 559.498 265.281Z" fill="#1E255C"/>
<path fill-rule="evenodd" clip-rule="evenodd" d="M574.32 250.301C571.455 250.301 569.132 247.954 569.132 245.058V185.139C569.132 182.243 571.455 179.896 574.32 179.896C577.185 179.896 579.507 182.243 579.507 185.139V245.058C579.507 247.954 577.185 250.301 574.32 250.301Z" fill="#1E255C"/>
<path fill-rule="evenodd" clip-rule="evenodd" d="M570.106 183.734C570.644 180.89 573.322 179.197 576.088 179.952L620.912 192.196C623.678 192.952 625.484 195.87 624.946 198.714C624.408 201.558 621.73 203.251 618.964 202.496L574.14 190.252C571.374 189.496 569.568 186.578 570.106 183.734Z" fill="#1E255C"/>
<path fill-rule="evenodd" clip-rule="evenodd" d="M570.106 200.212C570.644 197.368 573.322 195.675 576.088 196.43L620.912 208.674C623.678 209.43 625.484 212.348 624.946 215.192C624.408 218.036 621.73 219.729 618.964 218.973L574.14 206.73C571.374 205.974 569.568 203.056 570.106 200.212Z" fill="#1E255C"/>
</svg>
