<svg width="1440" height="1024" viewBox="0 0 1440 1024" fill="none" xmlns="http://www.w3.org/2000/svg">
<rect width="1440" height="1024" fill="#1E255C"/>
<path d="M296 664.282H319.958C328.839 664.282 335.407 666.163 339.662 669.925C343.979 673.687 346.137 678.906 346.137 685.581C346.137 692.195 343.979 697.414 339.662 701.237C335.407 705.06 328.839 706.971 319.958 706.971H313.946V727.998H296V664.282ZM319.958 678.572H313.946V692.681H319.958C322.857 692.681 325.046 692.074 326.526 690.86C328.068 689.586 328.839 687.826 328.839 685.581C328.839 680.909 325.879 678.572 319.958 678.572Z" fill="#7D83FF"/>
<path d="M374.467 728.908C366.512 728.908 360.283 726.966 355.781 723.082C351.279 719.138 349.029 713.798 349.029 707.062C349.029 700.205 351.218 694.865 355.596 691.042C360.036 687.159 366.142 685.217 373.912 685.217C381.621 685.217 387.51 687.037 391.58 690.678C395.65 694.319 397.686 699.538 397.686 706.334C397.686 707.062 397.686 707.791 397.686 708.519C397.747 709.186 397.716 709.793 397.593 710.339H365.402C366.203 715.436 369.04 717.985 373.912 717.985C378.476 717.985 381.682 716.407 383.532 713.252L398.148 715.983C393.523 724.599 385.629 728.908 374.467 728.908ZM373.542 695.229C369.164 695.229 366.512 697.566 365.587 702.238H380.572C380.387 700.054 379.678 698.355 378.445 697.141C377.211 695.867 375.577 695.229 373.542 695.229Z" fill="#7D83FF"/>
<path d="M433.653 702.329C433.036 701.601 432.296 700.994 431.433 700.509C430.569 700.023 429.521 699.781 428.288 699.781C426.438 699.781 424.834 700.539 423.477 702.056C422.182 703.512 421.535 705.758 421.535 708.792V727.998H405.809V686.127H421.535V691.498C422.892 689.495 424.557 687.917 426.53 686.764C428.565 685.611 430.662 685.035 432.82 685.035C434.362 685.035 435.842 685.399 437.261 686.127C438.741 686.795 439.789 687.644 440.406 688.676L433.653 702.329Z" fill="#7D83FF"/>
<path d="M448.235 712.069C452.059 714.981 455.204 716.832 457.671 717.621C460.137 718.41 461.926 718.804 463.036 718.804C465.318 718.804 466.458 717.924 466.458 716.165C466.458 715.436 466.212 714.83 465.718 714.344C465.287 713.798 464.423 713.252 463.128 712.706C461.895 712.16 460.045 711.492 457.578 710.703C455.543 710.036 453.6 709.186 451.75 708.155C449.962 707.123 448.482 705.758 447.31 704.059C446.138 702.299 445.553 700.054 445.553 697.323C445.553 693.439 447.094 690.466 450.178 688.403C453.323 686.279 457.331 685.217 462.203 685.217C465.965 685.217 469.388 685.763 472.471 686.855C475.555 687.948 478.484 689.283 481.259 690.86L476.541 701.419C474.63 699.72 472.41 698.324 469.881 697.232C467.414 696.14 465.287 695.594 463.498 695.594C462.327 695.594 461.494 695.806 461.001 696.231C460.507 696.655 460.261 697.171 460.261 697.778C460.261 699.113 461.093 700.054 462.758 700.6C464.423 701.146 466.952 702.056 470.344 703.33C472.44 704.119 474.383 704.999 476.171 705.97C478.021 706.941 479.501 708.246 480.612 709.884C481.783 711.462 482.369 713.555 482.369 716.165C482.369 720.898 480.951 724.387 478.114 726.632C475.277 728.877 471.207 730 465.903 730C461.217 730 456.961 729.333 453.138 727.998C449.376 726.723 445.799 725.024 442.407 722.9L448.235 712.069Z" fill="#7D83FF"/>
<path d="M487.242 707.062C487.242 702.572 488.321 698.688 490.48 695.411C492.638 692.135 495.598 689.616 499.36 687.857C503.184 686.036 507.501 685.126 512.311 685.126C517.121 685.126 521.407 686.036 525.169 687.857C528.931 689.616 531.891 692.135 534.049 695.411C536.208 698.688 537.287 702.572 537.287 707.062C537.287 711.492 536.208 715.345 534.049 718.622C531.891 721.899 528.931 724.448 525.169 726.268C521.407 728.028 517.121 728.908 512.311 728.908C507.501 728.908 503.184 728.028 499.36 726.268C495.598 724.448 492.638 721.899 490.48 718.622C488.321 715.345 487.242 711.492 487.242 707.062ZM503.8 707.062C503.8 709.975 504.633 712.22 506.298 713.798C508.025 715.376 510.029 716.165 512.311 716.165C514.654 716.165 516.658 715.376 518.323 713.798C519.989 712.22 520.821 709.975 520.821 707.062C520.821 704.15 519.989 701.904 518.323 700.327C516.658 698.688 514.654 697.869 512.311 697.869C510.029 697.869 508.025 698.688 506.298 700.327C504.633 701.904 503.8 704.15 503.8 707.062Z" fill="#7D83FF"/>
<path d="M572.768 702.511C572.768 700.327 572.367 698.658 571.565 697.505C570.825 696.291 569.438 695.685 567.403 695.685C565.491 695.685 563.949 696.261 562.777 697.414C561.667 698.506 561.112 700.205 561.112 702.511V727.998H545.017V686.127H561.112V692.317C562.346 690.132 564.011 688.403 566.107 687.128C568.266 685.793 570.948 685.126 574.155 685.126C579.705 685.126 583.652 686.491 585.996 689.222C588.401 691.953 589.603 695.836 589.603 700.873V727.998H572.768V702.511Z" fill="#7D83FF"/>
<path d="M604.945 699.963L599.857 689.586C602.57 688.433 605.685 687.371 609.2 686.4C612.777 685.369 616.6 684.853 620.67 684.853C624.555 684.853 628.04 685.399 631.123 686.491C634.268 687.584 636.735 689.161 638.523 691.224C640.312 693.227 641.206 695.715 641.206 698.688V727.998H626.035V722.172C624.802 724.357 622.921 726.025 620.393 727.178C617.864 728.331 615.058 728.908 611.975 728.908C609.2 728.908 606.64 728.422 604.297 727.451C602.015 726.42 600.165 724.933 598.747 722.991C597.328 720.989 596.619 718.562 596.619 715.709C596.619 711.704 598.038 708.549 600.874 706.243C603.773 703.937 607.905 702.784 613.27 702.784C615.798 702.784 618.173 703.027 620.393 703.512C622.613 703.998 624.494 704.635 626.035 705.424V702.42C626.035 700.6 625.419 699.174 624.185 698.142C623.014 697.05 621.102 696.504 618.45 696.504C616.662 696.504 614.812 696.716 612.9 697.141C611.05 697.566 609.385 698.051 607.905 698.597C606.486 699.143 605.5 699.599 604.945 699.963ZM612.715 714.89C612.715 716.286 613.239 717.348 614.287 718.076C615.336 718.804 616.538 719.168 617.895 719.168C619.745 719.168 621.472 718.622 623.075 717.53C624.679 716.377 625.635 714.648 625.943 712.342C623.723 711.371 621.287 710.885 618.635 710.885C616.538 710.885 615.027 711.249 614.102 711.978C613.177 712.645 612.715 713.616 612.715 714.89Z" fill="#7D83FF"/>
<path d="M650.98 657H667.076V727.998H650.98V657Z" fill="#7D83FF"/>
<path d="M919.582 700.873V727.998H903.487V702.511C903.487 700.327 903.148 698.658 902.469 697.505C901.791 696.291 900.619 695.685 898.954 695.685C897.474 695.685 896.241 696.261 895.254 697.414C894.267 698.506 893.774 700.205 893.774 702.511V727.998H877.771V702.511C877.771 700.327 877.401 698.658 876.661 697.505C875.982 696.291 874.811 695.685 873.146 695.685C871.665 695.685 870.432 696.261 869.445 697.414C868.459 698.506 867.965 700.205 867.965 702.511V727.998H852.61V686.127H867.965V692.317C869.199 690.071 870.833 688.312 872.868 687.037C874.903 685.763 877.432 685.126 880.453 685.126C883.907 685.126 886.589 685.702 888.501 686.855C890.413 687.948 891.77 689.586 892.571 691.771C894.175 689.647 896.117 688.008 898.399 686.855C900.743 685.702 903.363 685.126 906.262 685.126C911.38 685.126 914.865 686.491 916.715 689.222C918.627 691.953 919.582 695.836 919.582 700.873Z" fill="#7D83FF"/>
<path d="M927.448 707.062C927.448 702.572 928.527 698.688 930.686 695.411C932.844 692.135 935.804 689.616 939.566 687.857C943.39 686.036 947.706 685.126 952.517 685.126C957.327 685.126 961.613 686.036 965.375 687.857C969.137 689.616 972.097 692.135 974.255 695.411C976.414 698.688 977.493 702.572 977.493 707.062C977.493 711.492 976.414 715.345 974.255 718.622C972.097 721.899 969.137 724.448 965.375 726.268C961.613 728.028 957.327 728.908 952.517 728.908C947.706 728.908 943.39 728.028 939.566 726.268C935.804 724.448 932.844 721.899 930.686 718.622C928.527 715.345 927.448 711.492 927.448 707.062ZM944.006 707.062C944.006 709.975 944.839 712.22 946.504 713.798C948.231 715.376 950.235 716.165 952.517 716.165C954.86 716.165 956.864 715.376 958.529 713.798C960.195 712.22 961.027 709.975 961.027 707.062C961.027 704.15 960.195 701.904 958.529 700.327C956.864 698.688 954.86 697.869 952.517 697.869C950.235 697.869 948.231 698.688 946.504 700.327C944.839 701.904 944.006 704.15 944.006 707.062Z" fill="#7D83FF"/>
<path d="M980.69 686.127H988.368V671.564H1003.72V686.127H1011.31V698.87H1003.72V727.998H988.368V698.87H980.69V686.127Z" fill="#7D83FF"/>
<path d="M1015.64 670.926C1015.64 668.438 1016.53 666.466 1018.32 665.01C1020.11 663.493 1022.24 662.734 1024.71 662.734C1027.23 662.734 1029.36 663.493 1031.09 665.01C1032.88 666.466 1033.77 668.438 1033.77 670.926C1033.77 673.354 1032.88 675.326 1031.09 676.843C1029.36 678.299 1027.23 679.027 1024.71 679.027C1022.24 679.027 1020.11 678.299 1018.32 676.843C1016.53 675.326 1015.64 673.354 1015.64 670.926ZM1016.93 686.127H1032.48V727.998H1016.93V686.127Z" fill="#7D83FF"/>
<path d="M1040.64 707.062C1040.64 702.572 1041.72 698.688 1043.88 695.411C1046.03 692.135 1048.99 689.616 1052.76 687.857C1056.58 686.036 1060.9 685.126 1065.71 685.126C1070.52 685.126 1074.8 686.036 1078.57 687.857C1082.33 689.616 1085.29 692.135 1087.45 695.411C1089.6 698.688 1090.68 702.572 1090.68 707.062C1090.68 711.492 1089.6 715.345 1087.45 718.622C1085.29 721.899 1082.33 724.448 1078.57 726.268C1074.8 728.028 1070.52 728.908 1065.71 728.908C1060.9 728.908 1056.58 728.028 1052.76 726.268C1048.99 724.448 1046.03 721.899 1043.88 718.622C1041.72 715.345 1040.64 711.492 1040.64 707.062ZM1057.2 707.062C1057.2 709.975 1058.03 712.22 1059.69 713.798C1061.42 715.376 1063.43 716.165 1065.71 716.165C1068.05 716.165 1070.06 715.376 1071.72 713.798C1073.39 712.22 1074.22 709.975 1074.22 707.062C1074.22 704.15 1073.39 701.904 1071.72 700.327C1070.06 698.688 1068.05 697.869 1065.71 697.869C1063.43 697.869 1061.42 698.688 1059.69 700.327C1058.03 701.904 1057.2 704.15 1057.2 707.062Z" fill="#7D83FF"/>
<path d="M1126.16 702.511C1126.16 700.327 1125.76 698.658 1124.96 697.505C1124.22 696.291 1122.83 695.685 1120.8 695.685C1118.89 695.685 1117.35 696.261 1116.17 697.414C1115.06 698.506 1114.51 700.205 1114.51 702.511V727.998H1098.41V686.127H1114.51V692.317C1115.74 690.132 1117.41 688.403 1119.5 687.128C1121.66 685.793 1124.35 685.126 1127.55 685.126C1133.1 685.126 1137.05 686.491 1139.39 689.222C1141.8 691.953 1143 695.836 1143 700.873V727.998H1126.16V702.511Z" fill="#7D83FF"/>
<path d="M715.072 665H737.863C745.552 665.06 751.365 666.923 755.302 670.589C759.239 674.254 760.869 679.423 760.192 686.093C759.762 690.6 758.255 694.416 755.671 697.541C753.149 700.666 749.827 703.069 745.706 704.752C741.585 706.375 736.879 707.216 731.589 707.276H725.314L721.624 728.099H704L715.072 665ZM736.202 679.062H730.297L727.806 693.124H733.065C735.649 693.124 737.863 692.523 739.708 691.321C741.615 690.059 742.784 688.316 743.215 686.093C743.584 683.93 743.122 682.217 741.831 680.955C740.539 679.693 738.663 679.062 736.202 679.062Z" fill="#F9FAFB"/>
<path d="M790.592 702.589C789.977 701.928 789.27 701.357 788.47 700.876C787.732 700.395 786.84 700.155 785.794 700.155C783.641 700.095 781.734 700.996 780.074 702.859C778.413 704.662 777.428 706.765 777.121 709.169V709.079L773.707 728.099H758.298L765.587 686.634H781.089L779.981 692.763C781.581 690.66 783.426 688.947 785.517 687.625C787.67 686.243 789.823 685.552 791.976 685.552C793.576 685.552 794.96 685.943 796.128 686.724C797.297 687.445 798.281 688.316 799.081 689.338L790.592 702.589Z" fill="#F9FAFB"/>
<path d="M798.085 707.366C798.7 703.039 800.269 699.254 802.791 696.008C805.374 692.763 808.634 690.239 812.571 688.437C816.508 686.634 820.783 685.732 825.397 685.732C829.887 685.732 833.824 686.664 837.207 688.527C840.652 690.33 843.236 692.854 844.958 696.099C846.742 699.344 847.357 703.1 846.803 707.366C846.25 711.693 844.681 715.479 842.098 718.724C839.514 721.969 836.254 724.493 832.317 726.296C828.38 728.099 824.105 729 819.491 729C815.001 729 811.033 728.099 807.589 726.296C804.205 724.433 801.622 721.879 799.838 718.634C798.116 715.389 797.531 711.633 798.085 707.366ZM814.232 707.366C813.925 709.77 814.324 711.873 815.432 713.676C816.6 715.419 818.353 716.32 820.691 716.38C823.09 716.44 825.243 715.599 827.15 713.856C829.118 712.054 830.287 709.89 830.656 707.366C830.964 704.962 830.533 702.889 829.364 701.146C828.257 699.344 826.535 698.412 824.197 698.352C821.798 698.292 819.614 699.163 817.646 700.966C815.739 702.709 814.601 704.842 814.232 707.366Z" fill="#F9FAFB"/>
<path fill-rule="evenodd" clip-rule="evenodd" d="M627.428 538.878V543.873C627.428 546.634 629.667 548.873 632.428 548.873H842.319C845.08 548.873 847.319 546.634 847.319 543.873V333.982C847.319 331.221 845.08 328.982 842.319 328.982H837.323V538.878H627.428Z" fill="#7D83FF"/>
<path fill-rule="evenodd" clip-rule="evenodd" d="M609.437 520.886V525.882C609.437 528.643 611.676 530.882 614.437 530.882H824.328C827.089 530.882 829.328 528.643 829.328 525.882V315.991C829.328 313.23 827.089 310.991 824.328 310.991H819.332V520.886H609.437Z" fill="#7D83FF"/>
<rect x="591.446" y="293" width="219.555" height="219.555" rx="5" fill="#7D83FF"/>
<path fill-rule="evenodd" clip-rule="evenodd" d="M726.213 453.043C732.956 453.043 738.423 447.518 738.423 440.703C738.423 433.887 732.956 428.362 726.213 428.362C719.469 428.362 714.003 433.887 714.003 440.703C714.003 447.518 719.469 453.043 726.213 453.043ZM726.213 466.333C740.219 466.333 751.573 454.858 751.573 440.703C751.573 426.547 740.219 415.072 726.213 415.072C712.207 415.072 700.853 426.547 700.853 440.703C700.853 454.858 712.207 466.333 726.213 466.333Z" fill="#1E255C"/>
<path fill-rule="evenodd" clip-rule="evenodd" d="M744.998 447.347C741.367 447.347 738.423 444.372 738.423 440.703V364.761C738.423 361.091 741.367 358.116 744.998 358.116C748.629 358.116 751.573 361.091 751.573 364.761V440.703C751.573 444.372 748.629 447.347 744.998 447.347Z" fill="#1E255C"/>
<path fill-rule="evenodd" clip-rule="evenodd" d="M667.98 435.956C674.723 435.956 680.19 430.431 680.19 423.616C680.19 416.8 674.723 411.275 667.98 411.275C661.236 411.275 655.77 416.8 655.77 423.616C655.77 430.431 661.236 435.956 667.98 435.956ZM667.98 449.246C681.986 449.246 693.339 437.771 693.339 423.616C693.339 409.461 681.986 397.985 667.98 397.985C653.974 397.985 642.62 409.461 642.62 423.616C642.62 437.771 653.974 449.246 667.98 449.246Z" fill="#1E255C"/>
<path fill-rule="evenodd" clip-rule="evenodd" d="M686.765 430.261C683.134 430.261 680.19 427.286 680.19 423.616V347.674C680.19 344.004 683.134 341.029 686.765 341.029C690.396 341.029 693.339 344.004 693.339 347.674V423.616C693.339 427.286 690.396 430.261 686.765 430.261Z" fill="#1E255C"/>
<path fill-rule="evenodd" clip-rule="evenodd" d="M681.424 345.894C682.106 342.289 685.5 340.143 689.005 341.101L745.815 356.619C749.321 357.576 751.61 361.275 750.928 364.879C750.247 368.484 746.852 370.63 743.347 369.672L686.537 354.154C683.032 353.197 680.743 349.498 681.424 345.894Z" fill="#1E255C"/>
<path fill-rule="evenodd" clip-rule="evenodd" d="M681.424 366.778C682.106 363.173 685.5 361.027 689.005 361.985L745.815 377.503C749.321 378.46 751.61 382.159 750.928 385.763C750.247 389.368 746.852 391.514 743.347 390.556L686.537 375.038C683.032 374.081 680.743 370.382 681.424 366.778Z" fill="#1E255C"/>
</svg>
