<svg width="1440" height="1024" viewBox="0 0 1440 1024" fill="none" xmlns="http://www.w3.org/2000/svg">
<rect width="1440" height="1024" fill="#1F4427"/>
<path d="M926.976 507.237V619M433 618.365H979.682M926.976 511.682L846.685 405H1007.27L926.976 511.682Z" stroke="white" stroke-width="6"/>
<path d="M926.976 493.267L882.981 434.687H970.971L926.976 493.267Z" fill="#A3DD76"/>
<path d="M473.705 589.17C460.788 589.17 450.765 583.848 443.635 573.205V564.835C446.425 571.035 450.455 575.892 455.725 579.405C461.098 582.918 467.505 584.675 474.945 584.675C480.112 584.675 484.865 583.538 489.205 581.265C493.648 578.992 497.162 575.788 499.745 571.655C502.328 567.522 503.62 562.768 503.62 557.395C503.62 552.538 502.793 548.353 501.14 544.84C499.487 541.327 496.748 537.968 492.925 534.765C489.102 531.458 483.573 527.583 476.34 523.14L471.38 520.04C466.833 517.25 463.165 514.77 460.375 512.6C457.585 510.43 455.157 507.898 453.09 505.005C450.403 500.975 449.06 496.325 449.06 491.055C449.06 484.028 451.333 478.552 455.88 474.625C460.427 470.698 466.213 468.735 473.24 468.735C482.747 468.735 490.29 472.248 495.87 479.275V487.18C493.493 482.84 490.238 479.43 486.105 476.95C481.972 474.47 477.425 473.23 472.465 473.23C467.298 473.23 462.958 474.832 459.445 478.035C455.932 481.238 454.175 485.527 454.175 490.9C454.175 496.17 455.777 500.717 458.98 504.54C462.287 508.26 467.815 512.342 475.565 516.785C485.072 522.365 492.46 527.428 497.73 531.975C501.45 535.385 504.137 539.157 505.79 543.29C507.547 547.423 508.425 552.022 508.425 557.085C508.425 563.492 506.927 569.123 503.93 573.98C500.933 578.837 496.8 582.608 491.53 585.295C486.26 587.878 480.318 589.17 473.705 589.17ZM524.693 470.75H529.653V531.665C531.823 527.015 535.491 523.192 540.658 520.195C545.928 517.095 551.249 515.545 556.623 515.545C566.439 515.545 573.983 518.232 579.253 523.605C584.626 528.978 587.313 536.573 587.313 546.39V587H582.353V546.39C582.353 537.917 580.079 531.407 575.533 526.86C571.089 522.21 564.786 519.885 556.623 519.885C551.663 519.885 547.116 521.073 542.983 523.45C538.849 525.723 535.594 528.927 533.218 533.06C530.841 537.09 529.653 541.533 529.653 546.39V587H524.693V470.75ZM639.745 588.705C633.132 588.705 626.983 587.052 621.3 583.745C615.617 580.438 611.122 575.995 607.815 570.415C604.508 564.732 602.855 558.635 602.855 552.125C602.855 545.615 604.508 539.57 607.815 533.99C611.122 528.307 615.617 523.812 621.3 520.505C626.983 517.198 633.132 515.545 639.745 515.545C646.462 515.545 652.817 517.353 658.81 520.97C664.803 524.483 668.988 529.082 671.365 534.765V517.25H676.325V587H671.365V569.64C668.575 575.427 664.235 580.077 658.345 583.59C652.558 587 646.358 588.705 639.745 588.705ZM640.055 584.365C645.738 584.365 651.008 582.918 655.865 580.025C660.722 577.028 664.545 573.102 667.335 568.245C670.228 563.285 671.675 557.912 671.675 552.125C671.675 546.442 670.228 541.12 667.335 536.16C664.442 531.2 660.567 527.273 655.71 524.38C650.853 521.383 645.583 519.885 639.9 519.885C634.217 519.885 628.895 521.383 623.935 524.38C619.078 527.377 615.152 531.355 612.155 536.315C609.262 541.275 607.815 546.597 607.815 552.28C607.815 557.963 609.262 563.285 612.155 568.245C615.152 573.102 619.13 577.028 624.09 580.025C629.05 582.918 634.372 584.365 640.055 584.365ZM695.889 471.06H700.849V541.43L728.439 517.25H734.794L702.864 545.15L742.854 587H736.189L700.849 549.8V587H695.889V471.06ZM783.721 584.52C789.094 584.52 794.209 583.125 799.066 580.335C803.922 577.545 807.952 573.722 811.156 568.865V576.77C807.332 581.007 803.147 584.107 798.601 586.07C794.054 587.93 788.887 588.86 783.101 588.86C776.694 588.86 770.649 587.155 764.966 583.745C759.386 580.335 754.891 575.788 751.481 570.105C748.174 564.422 746.521 558.377 746.521 551.97C746.521 545.047 748.174 538.847 751.481 533.37C754.787 527.79 759.282 523.45 764.966 520.35C770.752 517.25 777.159 515.7 784.186 515.7C794.932 515.7 804.077 519.937 811.621 528.41L762.951 576.46C766.361 579.25 769.667 581.317 772.871 582.66C776.074 583.9 779.691 584.52 783.721 584.52ZM751.481 551.505C751.481 560.082 754.322 567.418 760.006 573.515L805.421 528.41C802.011 525.413 798.704 523.295 795.501 522.055C792.297 520.712 788.474 520.04 784.031 520.04C777.727 520.04 772.096 521.435 767.136 524.225C762.279 526.912 758.456 530.632 755.666 535.385C752.876 540.138 751.481 545.512 751.481 551.505ZM827.124 517.25H832.084V533.37C834.151 528.307 837.148 524.328 841.074 521.435C845.104 518.542 849.651 517.095 854.714 517.095C857.918 517.095 861.173 517.767 864.479 519.11V524.845C861.483 522.572 858.124 521.435 854.404 521.435C850.684 521.435 847.068 522.572 843.554 524.845C840.144 527.118 837.354 530.167 835.184 533.99C833.118 537.813 832.084 541.895 832.084 546.235V587H827.124V517.25Z" fill="white"/>
<path d="M443.635 573.205H442.635V573.509L442.804 573.762L443.635 573.205ZM443.635 564.835L444.547 564.425L442.635 564.835H443.635ZM455.725 579.405L455.17 580.237L455.178 580.242L455.725 579.405ZM489.205 581.265L488.75 580.375L488.741 580.379L489.205 581.265ZM499.745 571.655L500.593 572.185L500.593 572.185L499.745 571.655ZM501.14 544.84L500.235 545.266L501.14 544.84ZM492.925 534.765L492.271 535.521L492.277 535.526L492.283 535.532L492.925 534.765ZM476.34 523.14L475.81 523.988L475.817 523.992L476.34 523.14ZM471.38 520.04L471.91 519.192L471.903 519.188L471.38 520.04ZM460.375 512.6L459.761 513.389L459.761 513.389L460.375 512.6ZM453.09 505.005L452.258 505.56L452.267 505.573L452.276 505.586L453.09 505.005ZM495.87 479.275H496.87V478.926L496.653 478.653L495.87 479.275ZM495.87 487.18L494.993 487.66L496.87 487.18H495.87ZM459.445 478.035L460.119 478.774L460.119 478.774L459.445 478.035ZM458.98 504.54L458.213 505.182L458.223 505.193L458.233 505.204L458.98 504.54ZM475.565 516.785L476.071 515.923L476.062 515.917L475.565 516.785ZM497.73 531.975L498.406 531.238L498.395 531.228L498.383 531.218L497.73 531.975ZM505.79 543.29L504.862 543.661L504.865 543.671L504.87 543.681L505.79 543.29ZM503.93 573.98L504.781 574.505L504.781 574.505L503.93 573.98ZM491.53 585.295L491.97 586.193L491.977 586.189L491.984 586.186L491.53 585.295ZM473.705 588.17C461.119 588.17 451.408 583.012 444.466 572.648L442.804 573.762C450.122 584.685 460.458 590.17 473.705 590.17V588.17ZM444.635 573.205V564.835H442.635V573.205H444.635ZM442.723 565.245C445.584 571.604 449.732 576.612 455.17 580.237L456.28 578.573C451.178 575.172 447.266 570.466 444.547 564.425L442.723 565.245ZM455.178 580.242C460.738 583.878 467.342 585.675 474.945 585.675V583.675C467.668 583.675 461.458 581.959 456.272 578.568L455.178 580.242ZM474.945 585.675C480.264 585.675 485.178 584.503 489.669 582.151L488.741 580.379C484.552 582.573 479.959 583.675 474.945 583.675V585.675ZM489.66 582.155C494.261 579.802 497.911 576.476 500.593 572.185L498.897 571.125C496.412 575.101 493.036 578.182 488.75 580.375L489.66 582.155ZM500.593 572.185C503.286 567.877 504.62 562.936 504.62 557.395H502.62C502.62 562.601 501.371 567.167 498.897 571.125L500.593 572.185ZM504.62 557.395C504.62 552.427 503.775 548.09 502.045 544.414L500.235 545.266C501.812 548.617 502.62 552.65 502.62 557.395H504.62ZM502.045 544.414C500.315 540.738 497.471 537.269 493.567 533.998L492.283 535.532C496.025 538.667 498.659 541.916 500.235 545.266L502.045 544.414ZM493.579 534.009C489.697 530.651 484.116 526.743 476.863 522.288L475.817 523.992C483.03 528.423 488.507 532.266 492.271 535.521L493.579 534.009ZM476.87 522.292L471.91 519.192L470.85 520.888L475.81 523.988L476.87 522.292ZM471.903 519.188C467.374 516.408 463.739 513.95 460.989 511.811L459.761 513.389C462.591 515.59 466.293 518.092 470.857 520.892L471.903 519.188ZM460.989 511.811C458.276 509.7 455.915 507.239 453.904 504.424L452.276 505.586C454.399 508.558 456.894 511.16 459.761 513.389L460.989 511.811ZM453.922 504.45C451.355 500.599 450.06 496.146 450.06 491.055H448.06C448.06 496.504 449.452 501.351 452.258 505.56L453.922 504.45ZM450.06 491.055C450.06 484.264 452.245 479.086 456.534 475.382L455.226 473.868C450.422 478.018 448.06 483.792 448.06 491.055H450.06ZM456.534 475.382C460.869 471.638 466.41 469.735 473.24 469.735V467.735C466.016 467.735 459.985 469.759 455.226 473.868L456.534 475.382ZM473.24 469.735C482.463 469.735 489.709 473.125 495.087 479.897L496.653 478.653C490.871 471.372 483.031 467.735 473.24 467.735V469.735ZM494.87 479.275V487.18H496.87V479.275H494.87ZM496.747 486.7C494.288 482.208 490.909 478.666 486.619 476.093L485.591 477.807C489.567 480.194 492.699 483.472 494.993 487.66L496.747 486.7ZM486.619 476.093C482.326 473.516 477.601 472.23 472.465 472.23V474.23C477.249 474.23 481.617 475.424 485.591 477.807L486.619 476.093ZM472.465 472.23C467.073 472.23 462.485 473.91 458.771 477.296L460.119 478.774C463.431 475.754 467.524 474.23 472.465 474.23V472.23ZM458.771 477.296C455.022 480.715 453.175 485.286 453.175 490.9H455.175C455.175 485.767 456.841 481.762 460.119 478.774L458.771 477.296ZM453.175 490.9C453.175 496.39 454.85 501.168 458.213 505.182L459.747 503.898C456.703 500.265 455.175 495.95 455.175 490.9H453.175ZM458.233 505.204C461.647 509.045 467.286 513.191 475.068 517.653L476.062 515.917C468.344 511.492 462.927 507.475 459.727 503.876L458.233 505.204ZM475.059 517.647C484.54 523.212 491.871 528.241 497.077 532.732L498.383 531.218C493.049 526.616 485.604 521.518 476.071 515.923L475.059 517.647ZM497.054 532.712C500.678 536.034 503.271 539.685 504.862 543.661L506.718 542.919C505.002 538.628 502.222 534.736 498.406 531.238L497.054 532.712ZM504.87 543.681C506.567 547.676 507.425 552.139 507.425 557.085H509.425C509.425 551.904 508.526 547.171 506.71 542.899L504.87 543.681ZM507.425 557.085C507.425 563.33 505.967 568.775 503.079 573.455L504.781 574.505C507.887 569.472 509.425 563.654 509.425 557.085H507.425ZM503.079 573.455C500.182 578.15 496.189 581.797 491.076 584.404L491.984 586.186C497.411 583.419 501.684 579.524 504.781 574.505L503.079 573.455ZM491.09 584.397C485.973 586.905 480.185 588.17 473.705 588.17V590.17C480.451 590.17 486.547 588.851 491.97 586.193L491.09 584.397ZM524.693 470.75V469.75H523.693V470.75H524.693ZM529.653 470.75H530.653V469.75H529.653V470.75ZM529.653 531.665H528.653L530.559 532.088L529.653 531.665ZM540.658 520.195L541.159 521.06L541.165 521.057L540.658 520.195ZM579.253 523.605L578.539 524.305L578.546 524.312L579.253 523.605ZM587.313 587V588H588.313V587H587.313ZM582.353 587H581.353V588H582.353V587ZM575.533 526.86L574.81 527.551L574.818 527.559L574.826 527.567L575.533 526.86ZM542.983 523.45L543.465 524.326L543.473 524.322L543.481 524.317L542.983 523.45ZM533.218 533.06L534.079 533.568L534.085 533.558L533.218 533.06ZM529.653 587V588H530.653V587H529.653ZM524.693 587H523.693V588H524.693V587ZM524.693 471.75H529.653V469.75H524.693V471.75ZM528.653 470.75V531.665H530.653V470.75H528.653ZM530.559 532.088C532.629 527.652 536.14 523.971 541.159 521.06L540.156 519.33C534.842 522.412 531.017 526.378 528.747 531.242L530.559 532.088ZM541.165 521.057C546.303 518.035 551.451 516.545 556.623 516.545V514.545C551.048 514.545 545.553 516.155 540.151 519.333L541.165 521.057ZM556.623 516.545C566.256 516.545 573.509 519.177 578.539 524.305L579.967 522.905C574.456 517.286 566.623 514.545 556.623 514.545V516.545ZM578.546 524.312C583.681 529.448 586.313 536.758 586.313 546.39H588.313C588.313 536.389 585.571 528.509 579.96 522.898L578.546 524.312ZM586.313 546.39V587H588.313V546.39H586.313ZM587.313 586H582.353V588H587.313V586ZM583.353 587V546.39H581.353V587H583.353ZM583.353 546.39C583.353 537.739 581.028 530.941 576.24 526.153L574.826 527.567C579.131 531.872 581.353 538.094 581.353 546.39H583.353ZM576.256 526.169C571.576 521.272 564.981 518.885 556.623 518.885V520.885C564.591 520.885 570.603 523.148 574.81 527.551L576.256 526.169ZM556.623 518.885C551.495 518.885 546.775 520.116 542.484 522.583L543.481 524.317C547.457 522.031 551.83 520.885 556.623 520.885V518.885ZM542.501 522.574C538.205 524.936 534.818 528.271 532.351 532.562L534.085 533.558C536.371 529.582 539.494 526.51 543.465 524.326L542.501 522.574ZM532.356 532.552C529.885 536.742 528.653 541.362 528.653 546.39H530.653C530.653 541.705 531.797 537.438 534.079 533.568L532.356 532.552ZM528.653 546.39V587H530.653V546.39H528.653ZM529.653 586H524.693V588H529.653V586ZM525.693 587V470.75H523.693V587H525.693ZM621.3 583.745L620.797 584.609L620.797 584.609L621.3 583.745ZM607.815 570.415L606.951 570.918L606.955 570.925L607.815 570.415ZM607.815 533.99L608.675 534.5L608.679 534.493L607.815 533.99ZM621.3 520.505L620.797 519.641L620.797 519.641L621.3 520.505ZM658.81 520.97L658.293 521.826L658.304 521.833L658.81 520.97ZM671.365 534.765L670.443 535.151L672.365 534.765H671.365ZM671.365 517.25V516.25H670.365V517.25H671.365ZM676.325 517.25H677.325V516.25H676.325V517.25ZM676.325 587V588H677.325V587H676.325ZM671.365 587H670.365V588H671.365V587ZM671.365 569.64H672.365L670.464 569.206L671.365 569.64ZM658.345 583.59L658.853 584.452L658.857 584.449L658.345 583.59ZM655.865 580.025L656.377 580.884L656.384 580.88L656.39 580.876L655.865 580.025ZM667.335 568.245L666.471 567.741L666.468 567.747L667.335 568.245ZM667.335 536.16L666.471 536.664L666.471 536.664L667.335 536.16ZM655.71 524.38L655.185 525.231L655.192 525.235L655.198 525.239L655.71 524.38ZM623.935 524.38L623.418 523.524L623.41 523.529L623.935 524.38ZM612.155 536.315L611.299 535.798L611.295 535.804L611.291 535.811L612.155 536.315ZM612.155 568.245L611.291 568.749L611.298 568.76L611.304 568.77L612.155 568.245ZM624.09 580.025L623.573 580.881L623.58 580.885L623.586 580.889L624.09 580.025ZM639.745 587.705C633.307 587.705 627.333 586.098 621.803 582.881L620.797 584.609C626.634 588.005 632.956 589.705 639.745 589.705V587.705ZM621.803 582.881C616.265 579.659 611.894 575.336 608.675 569.905L606.955 570.925C610.35 576.654 614.969 581.218 620.797 584.609L621.803 582.881ZM608.679 569.912C605.461 564.38 603.855 558.456 603.855 552.125H601.855C601.855 558.814 603.556 565.083 606.951 570.918L608.679 569.912ZM603.855 552.125C603.855 545.794 605.461 539.925 608.675 534.5L606.955 533.48C603.556 539.215 601.855 545.436 601.855 552.125H603.855ZM608.679 534.493C611.899 528.959 616.269 524.589 621.803 521.369L620.797 519.641C614.964 523.034 610.345 527.654 606.951 533.487L608.679 534.493ZM621.803 521.369C627.333 518.152 633.307 516.545 639.745 516.545V514.545C632.956 514.545 626.634 516.245 620.797 519.641L621.803 521.369ZM639.745 516.545C646.272 516.545 652.449 518.299 658.293 521.826L659.327 520.114C653.184 516.407 646.652 514.545 639.745 514.545V516.545ZM658.304 521.833C664.136 525.251 668.16 529.693 670.443 535.151L672.288 534.379C669.817 528.471 665.471 523.716 659.316 520.107L658.304 521.833ZM672.365 534.765V517.25H670.365V534.765H672.365ZM671.365 518.25H676.325V516.25H671.365V518.25ZM675.325 517.25V587H677.325V517.25H675.325ZM676.325 586H671.365V588H676.325V586ZM672.365 587V569.64H670.365V587H672.365ZM670.464 569.206C667.765 574.804 663.566 579.311 657.833 582.731L658.857 584.449C664.904 580.842 669.385 576.05 672.266 570.074L670.464 569.206ZM657.837 582.728C652.202 586.049 646.177 587.705 639.745 587.705V589.705C646.54 589.705 652.915 587.951 658.853 584.452L657.837 582.728ZM640.055 585.365C645.918 585.365 651.365 583.87 656.377 580.884L655.353 579.166C650.652 581.966 645.559 583.365 640.055 583.365V585.365ZM656.39 580.876C661.386 577.794 665.328 573.747 668.202 568.743L666.468 567.747C663.763 572.456 660.058 576.263 655.34 579.174L656.39 580.876ZM668.199 568.749C671.182 563.635 672.675 558.087 672.675 552.125H670.675C670.675 557.736 669.275 562.935 666.471 567.741L668.199 568.749ZM672.675 552.125C672.675 546.263 671.18 540.767 668.199 535.656L666.471 536.664C669.276 541.473 670.675 546.621 670.675 552.125H672.675ZM668.199 535.656C665.222 530.552 661.226 526.502 656.222 523.521L655.198 525.239C659.907 528.044 663.662 531.848 666.471 536.664L668.199 535.656ZM656.235 523.529C651.221 520.435 645.77 518.885 639.9 518.885V520.885C645.397 520.885 650.485 522.331 655.185 525.231L656.235 523.529ZM639.9 518.885C634.031 518.885 628.531 520.435 623.418 523.524L624.452 525.236C629.259 522.332 634.403 520.885 639.9 520.885V518.885ZM623.41 523.529C618.416 526.61 614.377 530.704 611.299 535.798L613.011 536.832C615.927 532.006 619.741 528.143 624.46 525.231L623.41 523.529ZM611.291 535.811C608.31 540.922 606.815 546.418 606.815 552.28H608.815C608.815 546.776 610.214 541.628 613.019 536.819L611.291 535.811ZM606.815 552.28C606.815 558.142 608.31 563.638 611.291 568.749L613.019 567.741C610.214 562.932 608.815 557.784 608.815 552.28H606.815ZM611.304 568.77C614.386 573.764 618.479 577.803 623.573 580.881L624.607 579.169C619.781 576.253 615.918 572.439 613.006 567.72L611.304 568.77ZM623.586 580.889C628.698 583.87 634.193 585.365 640.055 585.365V583.365C634.551 583.365 629.403 581.966 624.594 579.161L623.586 580.889ZM695.889 471.06V470.06H694.889V471.06H695.889ZM700.849 471.06H701.849V470.06H700.849V471.06ZM700.849 541.43H699.849V543.636L701.508 542.182L700.849 541.43ZM728.439 517.25V516.25H728.063L727.78 516.498L728.439 517.25ZM734.794 517.25L735.452 518.003L737.458 516.25H734.794V517.25ZM702.864 545.15L702.206 544.397L701.419 545.085L702.141 545.841L702.864 545.15ZM742.854 587V588H745.193L743.577 586.309L742.854 587ZM736.189 587L735.464 587.689L735.76 588H736.189V587ZM700.849 549.8L701.574 549.111L699.849 547.295V549.8H700.849ZM700.849 587V588H701.849V587H700.849ZM695.889 587H694.889V588H695.889V587ZM695.889 472.06H700.849V470.06H695.889V472.06ZM699.849 471.06V541.43H701.849V471.06H699.849ZM701.508 542.182L729.098 518.002L727.78 516.498L700.19 540.678L701.508 542.182ZM728.439 518.25H734.794V516.25H728.439V518.25ZM734.136 516.497L702.206 544.397L703.522 545.903L735.452 518.003L734.136 516.497ZM702.141 545.841L742.131 587.691L743.577 586.309L703.587 544.459L702.141 545.841ZM742.854 586H736.189V588H742.854V586ZM736.914 586.311L701.574 549.111L700.124 550.489L735.464 587.689L736.914 586.311ZM699.849 549.8V587H701.849V549.8H699.849ZM700.849 586H695.889V588H700.849V586ZM696.889 587V471.06H694.889V587H696.889ZM799.066 580.335L798.568 579.468L798.568 579.468L799.066 580.335ZM811.156 568.865H812.156V565.533L810.321 568.314L811.156 568.865ZM811.156 576.77L811.898 577.44L812.156 577.155V576.77H811.156ZM798.601 586.07L798.979 586.996L798.988 586.992L798.997 586.988L798.601 586.07ZM764.966 583.745L764.444 584.598L764.451 584.602L764.966 583.745ZM751.481 570.105L750.616 570.608L750.623 570.619L751.481 570.105ZM751.481 533.37L752.337 533.887L752.341 533.88L751.481 533.37ZM764.966 520.35L764.494 519.468L764.487 519.472L764.966 520.35ZM811.621 528.41L812.323 529.122L812.999 528.454L812.368 527.745L811.621 528.41ZM762.951 576.46L762.248 575.748L761.457 576.53L762.318 577.234L762.951 576.46ZM772.871 582.66L772.484 583.582L772.497 583.588L772.51 583.593L772.871 582.66ZM760.006 573.515L759.274 574.197L759.978 574.952L760.71 574.225L760.006 573.515ZM805.421 528.41L806.125 529.12L806.885 528.365L806.081 527.659L805.421 528.41ZM795.501 522.055L795.114 522.977L795.127 522.983L795.14 522.988L795.501 522.055ZM767.136 524.225L767.62 525.1L767.626 525.097L767.136 524.225ZM755.666 535.385L754.803 534.879L755.666 535.385ZM783.721 585.52C789.276 585.52 794.562 584.075 799.564 581.202L798.568 579.468C793.856 582.175 788.912 583.52 783.721 583.52V585.52ZM799.564 581.202C804.561 578.331 808.705 574.397 811.991 569.416L810.321 568.314C807.2 573.046 803.284 576.759 798.568 579.468L799.564 581.202ZM810.156 568.865V576.77H812.156V568.865H810.156ZM810.413 576.1C806.672 580.246 802.601 583.254 798.204 585.152L798.997 586.988C803.694 584.96 807.993 581.767 811.898 577.44L810.413 576.1ZM798.222 585.144C793.815 586.947 788.78 587.86 783.101 587.86V589.86C788.995 589.86 794.293 588.913 798.979 586.996L798.222 585.144ZM783.101 587.86C776.882 587.86 771.014 586.208 765.48 582.888L764.451 584.602C770.284 588.102 776.506 589.86 783.101 589.86V587.86ZM765.487 582.892C760.047 579.567 755.666 575.137 752.338 569.591L750.623 570.619C754.115 576.439 758.725 581.103 764.444 584.598L765.487 582.892ZM752.345 569.602C749.125 564.067 747.521 558.195 747.521 551.97H745.521C745.521 558.558 747.223 564.776 750.616 570.608L752.345 569.602ZM747.521 551.97C747.521 545.213 749.132 539.195 752.337 533.887L750.625 532.853C747.216 538.499 745.521 544.88 745.521 551.97H747.521ZM752.341 533.88C755.556 528.454 759.92 524.242 765.445 521.228L764.487 519.472C758.645 522.658 754.019 527.126 750.62 532.86L752.341 533.88ZM765.438 521.231C771.069 518.215 777.312 516.7 784.186 516.7V514.7C777.006 514.7 770.436 516.285 764.494 519.469L765.438 521.231ZM784.186 516.7C794.63 516.7 803.508 520.801 810.874 529.075L812.368 527.745C804.647 519.072 795.235 514.7 784.186 514.7V516.7ZM810.918 527.698L762.248 575.748L763.653 577.172L812.323 529.122L810.918 527.698ZM762.318 577.234C765.783 580.069 769.172 582.193 772.484 583.582L773.257 581.738C770.163 580.44 766.938 578.431 763.584 575.686L762.318 577.234ZM772.51 583.593C775.846 584.884 779.588 585.52 783.721 585.52V583.52C779.793 583.52 776.302 582.916 773.232 581.727L772.51 583.593ZM750.481 551.505C750.481 560.327 753.413 567.909 759.274 574.197L760.737 572.833C755.232 566.927 752.481 559.837 752.481 551.505H750.481ZM760.71 574.225L806.125 529.12L804.716 527.7L759.301 572.805L760.71 574.225ZM806.081 527.659C802.609 524.608 799.204 522.416 795.862 521.122L795.14 522.988C798.205 524.174 801.412 526.219 804.761 529.161L806.081 527.659ZM795.887 521.133C792.533 519.726 788.571 519.04 784.031 519.04V521.04C788.377 521.04 792.062 521.697 795.114 522.977L795.887 521.133ZM784.031 519.04C777.575 519.04 771.771 520.47 766.645 523.353L767.626 525.097C772.421 522.4 777.88 521.04 784.031 521.04V519.04ZM766.652 523.35C761.639 526.123 757.685 529.97 754.803 534.879L756.528 535.891C759.227 531.294 762.919 527.701 767.62 525.1L766.652 523.35ZM754.803 534.879C751.915 539.799 750.481 545.35 750.481 551.505H752.481C752.481 545.674 753.836 540.478 756.528 535.891L754.803 534.879ZM827.124 517.25V516.25H826.124V517.25H827.124ZM832.084 517.25H833.084V516.25H832.084V517.25ZM832.084 533.37H831.084L833.01 533.748L832.084 533.37ZM841.074 521.435L840.491 520.623L840.481 520.63L841.074 521.435ZM864.479 519.11H865.479V518.437L864.856 518.184L864.479 519.11ZM864.479 524.845L863.875 525.642L865.479 526.859V524.845H864.479ZM843.554 524.845L843.011 524.005L843 524.013L843.554 524.845ZM835.184 533.99L834.315 533.496L834.31 533.505L834.305 533.514L835.184 533.99ZM832.084 587V588H833.084V587H832.084ZM827.124 587H826.124V588H827.124V587ZM827.124 518.25H832.084V516.25H827.124V518.25ZM831.084 517.25V533.37H833.084V517.25H831.084ZM833.01 533.748C835.016 528.834 837.906 525.011 841.668 522.24L840.481 520.63C836.389 523.645 833.286 527.78 831.159 532.992L833.01 533.748ZM841.658 522.247C845.514 519.479 849.856 518.095 854.714 518.095V516.095C849.446 516.095 844.695 517.605 840.491 520.623L841.658 522.247ZM854.714 518.095C857.775 518.095 860.902 518.736 864.103 520.036L864.856 518.184C861.443 516.797 858.061 516.095 854.714 516.095V518.095ZM863.479 519.11V524.845H865.479V519.11H863.479ZM865.084 524.048C861.915 521.645 858.345 520.435 854.404 520.435V522.435C857.904 522.435 861.05 523.499 863.875 525.642L865.084 524.048ZM854.404 520.435C850.468 520.435 846.665 521.641 843.011 524.005L844.098 525.685C847.47 523.502 850.901 522.435 854.404 522.435V520.435ZM843 524.013C839.45 526.379 836.556 529.547 834.315 533.496L836.054 534.484C838.153 530.786 840.838 527.857 844.109 525.677L843 524.013ZM834.305 533.514C832.159 537.484 831.084 541.729 831.084 546.235H833.084C833.084 542.061 834.076 538.143 836.064 534.466L834.305 533.514ZM831.084 546.235V587H833.084V546.235H831.084ZM832.084 586H827.124V588H832.084V586ZM828.124 587V517.25H826.124V587H828.124Z" fill="white"/>
</svg>
