<svg width="761" height="761" viewBox="0 0 761 761" fill="none" xmlns="http://www.w3.org/2000/svg">
<line x1="9.5" y1="-9.5" x2="52.5" y2="-9.5" transform="matrix(0.367114 -0.930176 0.974515 0.224323 390 162.112)" stroke="#363636" stroke-width="19" stroke-linecap="round" stroke-linejoin="round"/>
<line x1="9.5" y1="-9.5" x2="70.5" y2="-9.5" transform="matrix(-0.22002 -0.975495 -0.997396 0.0721162 315.638 171.285)" stroke="#363636" stroke-width="19" stroke-linecap="round" stroke-linejoin="round"/>
<line x1="9.5" y1="-9.5" x2="52.5" y2="-9.5" transform="matrix(-0.851564 -0.52425 -0.52425 0.851564 275.797 199.504)" stroke="#363636" stroke-width="19" stroke-linecap="round" stroke-linejoin="round"/>
<line x1="9.5" y1="-9.5" x2="52.5" y2="-9.5" transform="matrix(-0.367114 0.930176 -0.974515 -0.224323 431.761 564.391)" stroke="#363636" stroke-width="19" stroke-linecap="round" stroke-linejoin="round"/>
<line x1="9.5" y1="-9.5" x2="70.5" y2="-9.5" transform="matrix(0.22002 0.975495 0.997396 -0.0721162 506.124 555.219)" stroke="#363636" stroke-width="19" stroke-linecap="round" stroke-linejoin="round"/>
<line x1="9.5" y1="-9.5" x2="52.5" y2="-9.5" transform="matrix(0.851564 0.52425 0.52425 -0.851564 545.964 527)" stroke="#363636" stroke-width="19" stroke-linecap="round" stroke-linejoin="round"/>
<path d="M426 209H553V506H426V209Z" fill="#89C064"/>
<path d="M402 258H584V378H402V258Z" fill="#89C064"/>
<path d="M538 200H590V337H538V200Z" fill="#89C064"/>
<path d="M538 371H590V478H538V371Z" fill="#89C064"/>
<path d="M578 389H642V433H578V389Z" fill="#89C064"/>
<path d="M549 410H613V454H549V410Z" fill="#89C064"/>
<path d="M564 241H616V320H564V241Z" fill="#89C064"/>
<path fill-rule="evenodd" clip-rule="evenodd" d="M415.919 227.404C415.965 227.29 416.014 227.176 416.064 227.064C419.017 217.112 424.944 209.976 432.572 205.958C440.246 201.915 448.869 201.43 456.427 203.334C461.906 204.714 467.209 207.449 471.438 211.45C478.637 200.144 487.845 192.014 498.163 188.913C506.861 186.299 515.948 187.484 523.783 193.075C526.511 195.022 528.979 197.423 531.19 200.23C543.515 183.852 562.366 178.081 577.511 187.591C591.323 196.263 596.539 214.298 591.161 235.966C599.331 235.24 607.208 236.632 613.956 240.457C626.21 247.403 632.236 260.916 630.396 277.263C630.2 279.011 629.54 280.595 628.554 281.906L586.043 387.074L603.197 375.41C604.031 374.842 604.942 374.411 605.894 374.112C606.89 373.205 608.097 372.496 609.469 372.07C624.317 367.457 640.354 368.667 650.156 379.201C660.401 390.211 659.788 406.81 651.022 423.989C650.364 425.28 649.451 426.355 648.376 427.186C647.917 427.867 647.341 428.505 646.65 429.079L537.387 519.774C536.591 520.435 535.7 520.961 534.754 521.353C533.53 522.558 531.991 523.372 530.257 523.611C480.919 530.407 436.374 527.496 405.087 503.131L414.574 486.358C440.122 506.254 479.001 510.115 527.662 503.412L527.688 503.408L632.47 416.432C632.983 416.006 633.534 415.637 634.114 415.323C641.228 401.362 638.568 394.639 636.246 392.144C633.479 389.17 626.429 386.696 615.106 390.214C614.952 390.262 614.798 390.306 614.645 390.345L573.93 418.03C569.592 420.981 563.185 420.251 559.621 416.401C558.467 415.155 557.753 413.734 557.461 412.283C556.968 410.587 557.047 408.674 557.816 406.772L611.032 275.121C611.205 274.693 611.407 274.28 611.635 273.884C612.371 264.361 608.777 259.362 604.587 256.987C599.954 254.361 592.24 253.606 582.716 257.388L552.064 333.219C550.097 338.084 544.367 341.039 539.263 339.82C534.16 338.601 531.617 333.669 533.584 328.805L567.687 244.437C568.057 243.52 568.561 242.671 569.17 241.906L569.189 241.86L569.205 241.821C579.152 218.226 572.365 206.794 567.407 203.681C562.799 200.787 552.299 200.636 543.714 215.712C543.605 215.903 543.491 216.09 543.371 216.27L508.903 317.499C507.212 322.466 501.656 325.737 496.492 324.805C491.329 323.874 488.514 319.092 490.205 314.125L521.577 221.987C518.849 214.602 515.555 210.545 512.745 208.541C509.939 206.538 506.996 206.098 503.631 207.109C495.983 209.407 485.378 219.88 479.033 240.327C478.818 241.017 478.533 241.666 478.186 242.267C477.933 242.856 477.626 243.407 477.274 243.917L456.376 314.361C454.884 319.391 449.462 322.88 444.266 322.155C439.069 321.429 436.067 316.763 437.559 311.733L459.458 237.913C459.676 237.18 459.977 236.48 460.348 235.821C460.405 235.63 460.467 235.44 460.537 235.251C461.869 231.603 461.215 228.998 459.879 227.009C458.351 224.734 455.477 222.688 451.785 221.758C448.141 220.84 444.414 221.194 441.427 222.768C438.633 224.24 435.719 227.172 434.125 233.012C433.821 234.125 433.331 235.137 432.699 236.025L396.812 324.805L383.543 307.5L415.919 227.404Z" fill="#363636"/>
<path d="M569.205 241.821C579.152 218.226 572.365 206.794 567.407 203.681C562.799 200.787 552.3 200.636 543.714 215.712C543.605 215.903 543.491 216.09 543.371 216.27L508.903 317.499C507.212 322.466 501.656 325.737 496.492 324.805C491.329 323.874 488.514 319.092 490.205 314.125L521.577 221.987C518.849 214.602 515.555 210.545 512.745 208.541C509.939 206.538 506.996 206.098 503.631 207.109C495.983 209.407 485.378 219.88 479.033 240.327C478.818 241.017 478.533 241.666 478.186 242.267C477.933 242.856 477.626 243.407 477.274 243.917L456.376 314.361C454.884 319.391 449.462 322.88 444.266 322.155C439.069 321.429 436.067 316.763 437.559 311.733L459.458 237.913C459.676 237.18 459.977 236.48 460.348 235.821C460.405 235.63 460.467 235.44 460.537 235.251C461.869 231.603 461.215 228.998 459.879 227.009C458.351 224.734 455.477 222.688 451.785 221.758C448.141 220.84 444.414 221.194 441.427 222.768C438.633 224.24 435.719 227.172 434.125 233.012C433.821 234.125 433.331 235.137 432.699 236.025L396.812 324.805L383.543 307.5L415.919 227.404C415.965 227.29 416.014 227.176 416.064 227.064C419.017 217.112 424.944 209.976 432.572 205.958C440.246 201.915 448.869 201.43 456.427 203.334C461.906 204.714 467.209 207.449 471.438 211.45C478.637 200.144 487.845 192.014 498.163 188.913C506.861 186.299 515.948 187.484 523.783 193.075C526.511 195.022 528.979 197.423 531.19 200.23C543.515 183.852 562.366 178.081 577.511 187.591C591.323 196.263 596.539 214.298 591.161 235.966C599.331 235.24 607.208 236.632 613.956 240.457C626.21 247.403 632.236 260.916 630.396 277.263C630.2 279.011 629.54 280.595 628.554 281.906L586.043 387.074L603.197 375.41C604.031 374.842 604.942 374.411 605.894 374.112C606.89 373.205 608.097 372.496 609.469 372.07C624.317 367.457 640.354 368.667 650.156 379.201C660.401 390.211 659.788 406.81 651.022 423.989C650.364 425.28 649.451 426.355 648.376 427.186C647.917 427.867 647.341 428.505 646.65 429.079L537.387 519.774C536.591 520.435 535.7 520.961 534.754 521.353C533.53 522.558 531.991 523.372 530.257 523.611C480.919 530.407 436.374 527.496 405.087 503.131L414.574 486.358C440.122 506.254 479.001 510.115 527.662 503.412L527.688 503.408L632.47 416.432C632.983 416.006 633.534 415.637 634.114 415.323C641.228 401.362 638.567 394.639 636.246 392.144C633.479 389.17 626.429 386.696 615.106 390.214C614.952 390.262 614.798 390.306 614.645 390.345L573.93 418.03C569.592 420.981 563.185 420.251 559.621 416.401C558.467 415.155 557.753 413.734 557.461 412.283C556.968 410.587 557.047 408.674 557.816 406.772L611.032 275.121C611.205 274.693 611.407 274.28 611.635 273.884C612.371 264.361 608.777 259.362 604.587 256.987C599.954 254.361 592.24 253.606 582.716 257.388L552.064 333.219C550.097 338.084 544.367 341.039 539.263 339.82C534.16 338.601 531.617 333.669 533.584 328.805L567.687 244.437C568.057 243.52 568.561 242.671 569.17 241.906M569.205 241.821C569.2 241.834 569.194 241.847 569.189 241.86M569.205 241.821L569.189 241.86M569.17 241.906C569.176 241.89 569.183 241.875 569.189 241.86M569.17 241.906L569.189 241.86" stroke="#363636" stroke-width="6" stroke-linecap="round"/>
<path fill-rule="evenodd" clip-rule="evenodd" d="M376.895 263.053C376.946 263.165 376.994 263.279 377.04 263.393L429.443 393.032C430.47 394.53 431.13 396.397 431.257 398.475C435.541 468.526 420.129 514 387.873 539.12C356.585 563.485 312.041 566.396 262.702 559.599C260.969 559.361 259.43 558.547 258.205 557.342C257.259 556.95 256.369 556.424 255.572 555.763L146.31 465.068C145.618 464.494 145.043 463.856 144.583 463.175C143.508 462.344 142.595 461.269 141.937 459.978C133.172 442.799 132.559 426.2 142.804 415.19C152.605 404.656 168.642 403.446 183.491 408.059C184.863 408.485 186.069 409.194 187.066 410.101C188.018 410.4 188.928 410.831 189.763 411.399L206.917 423.063L164.406 317.895C163.419 316.584 162.76 315 162.563 313.252C160.723 296.905 166.749 283.392 179.003 276.446C185.752 272.621 193.629 271.229 201.798 271.955C196.42 250.287 201.637 232.252 215.448 223.579C230.594 214.07 249.445 219.841 261.769 236.219C263.981 233.412 266.449 231.011 269.177 229.064C277.011 223.473 286.099 222.288 294.797 224.902C305.115 228.003 314.323 236.133 321.521 247.439C325.75 243.438 331.053 240.703 336.533 239.323C344.09 237.419 352.713 237.904 360.388 241.947C368.016 245.965 373.943 253.101 376.895 263.053ZM223.754 277.81C213.807 254.215 220.595 242.783 225.552 239.67C230.161 236.776 240.66 236.625 249.245 251.701C249.354 251.892 249.469 252.079 249.589 252.259L284.056 353.488C285.747 358.455 291.304 361.726 296.467 360.794C301.63 359.863 304.445 355.081 302.754 350.114L271.382 257.976C274.11 250.591 277.405 246.534 280.214 244.53C283.02 242.527 285.964 242.087 289.328 243.098C296.977 245.396 307.581 255.869 313.927 276.316C314.141 277.006 314.427 277.655 314.773 278.256C315.026 278.845 315.333 279.396 315.685 279.906L336.583 350.35C338.075 355.38 343.497 358.869 348.694 358.144C353.89 357.418 356.893 352.752 355.401 347.722L333.501 273.902C333.284 273.169 332.983 272.469 332.611 271.81C332.555 271.619 332.492 271.429 332.423 271.24C331.09 267.592 331.745 264.987 333.081 262.998C334.609 260.723 337.483 258.677 341.174 257.747C344.818 256.829 348.545 257.183 351.532 258.757C354.326 260.229 357.241 263.161 358.835 269.001C359.139 270.114 359.628 271.126 360.261 272.014L411.776 399.459C412.264 400.667 412.984 401.756 413.869 402.694C417.478 467.721 402.697 503.414 378.386 522.347C352.837 542.243 313.959 546.104 265.297 539.401L265.271 539.397L160.489 452.421C159.977 451.995 159.425 451.626 158.846 451.312C151.731 437.351 154.392 430.628 156.714 428.133C159.48 425.159 166.53 422.685 177.854 426.203C178.007 426.251 178.161 426.295 178.315 426.334L219.029 454.019C223.368 456.97 229.774 456.24 233.339 452.39C234.492 451.144 235.206 449.723 235.498 448.272C235.992 446.576 235.912 444.663 235.143 442.761L181.927 311.11C181.755 310.682 181.553 310.269 181.324 309.873C180.588 300.35 184.182 295.351 188.372 292.976C193.006 290.35 200.719 289.595 210.243 293.377L240.896 369.208C242.862 374.073 248.593 377.028 253.696 375.809C258.799 374.59 261.342 369.658 259.376 364.794L225.273 280.426C224.902 279.509 224.398 278.66 223.79 277.895C223.783 277.879 223.777 277.864 223.771 277.849C223.765 277.836 223.76 277.823 223.754 277.81Z" fill="#363636" stroke="#363636" stroke-width="6" stroke-linecap="round"/>
</svg>
