<svg width="761" height="761" viewBox="0 0 761 761" fill="none" xmlns="http://www.w3.org/2000/svg">
<circle cx="239" cy="381" r="91" stroke="#363636" stroke-width="36"/>
<circle cx="520" cy="381" r="91" stroke="#363636" stroke-width="36"/>
<rect x="89" y="359" width="50" height="35" rx="3" fill="#363636"/>
<rect x="622" y="351" width="50" height="35" rx="3" fill="#363636"/>
<path d="M331 345C331 345 358.632 323.623 379.175 324.005C398.881 324.371 425 345 425 345" stroke="#363636" stroke-width="41"/>
<path d="M508.616 121.381C508.616 121.381 515.359 133.898 521.65 140.183C527.941 146.467 540.833 153.565 540.833 153.565C540.833 153.565 527.944 160.781 521.65 167.08C515.357 173.38 508.603 185.828 508.603 185.828C499.825 168.003 491.525 161.086 476.386 153.645C476.386 153.645 489.842 146.483 496.136 140.183C502.429 133.883 508.616 121.381 508.616 121.381Z" fill="#89C064"/>
<path d="M545.383 527C545.383 527 554.67 544.237 563.333 552.891C571.995 561.545 589.749 571.319 589.749 571.319C589.749 571.319 571.999 581.256 563.333 589.931C554.666 598.607 545.365 615.749 545.365 615.749C533.277 591.201 521.848 581.677 501 571.429C501 571.429 519.531 561.566 528.197 552.891C536.864 544.216 545.383 527 545.383 527Z" fill="#89C064"/>
<path d="M622.163 190C622.163 190 625.545 196.277 628.7 199.429C631.855 202.58 638.32 206.14 638.32 206.14C638.32 206.14 631.856 209.759 628.7 212.918C625.544 216.078 622.157 222.32 622.157 222.32C617.755 213.381 613.592 209.912 606 206.18C606 206.18 612.749 202.588 615.905 199.429C619.061 196.27 622.163 190 622.163 190Z" fill="#89C064"/>
<path d="M233.163 97C233.163 97 236.545 103.277 239.7 106.429C242.855 109.58 249.32 113.14 249.32 113.14C249.32 113.14 242.856 116.759 239.7 119.918C236.544 123.078 233.157 129.32 233.157 129.32C228.755 120.381 224.592 116.912 217 113.18C217 113.18 223.749 109.588 226.905 106.429C230.061 103.27 233.163 97 233.163 97Z" fill="#89C064"/>
<path d="M277.163 616C277.163 616 280.545 622.277 283.7 625.429C286.855 628.58 293.32 632.14 293.32 632.14C293.32 632.14 286.856 635.759 283.7 638.918C280.544 642.078 277.157 648.32 277.157 648.32C272.755 639.381 268.592 635.912 261 632.18C261 632.18 267.749 628.588 270.905 625.429C274.061 622.27 277.163 616 277.163 616Z" fill="#89C064"/>
<path d="M233.163 554C233.163 554 236.545 560.277 239.7 563.429C242.855 566.58 249.32 570.14 249.32 570.14C249.32 570.14 242.856 573.759 239.7 576.918C236.544 580.078 233.157 586.32 233.157 586.32C228.755 577.381 224.592 573.912 217 570.18C217 570.18 223.749 566.588 226.905 563.429C230.061 560.27 233.163 554 233.163 554Z" fill="#89C064"/>
<path d="M260.865 172.898C260.865 172.898 266.632 183.603 272.012 188.977C277.391 194.351 288.416 200.421 288.416 200.421C288.416 200.421 277.394 206.591 272.012 211.979C266.63 217.366 260.854 228.011 260.854 228.011C253.347 212.767 246.249 206.853 233.303 200.489C233.303 200.489 244.811 194.364 250.193 188.977C255.574 183.589 260.865 172.898 260.865 172.898Z" fill="#89C064"/>
<path d="M324.002 586C324.002 586 326.304 590.273 328.452 592.418C330.599 594.563 335 596.986 335 596.986C335 596.986 330.6 599.45 328.452 601.6C326.303 603.751 323.998 608 323.998 608C321.001 601.915 318.168 599.554 313 597.014C313 597.014 317.594 594.569 319.742 592.418C321.89 590.268 324.002 586 324.002 586Z" fill="#89C064"/>
<path d="M515.002 648C515.002 648 517.304 652.273 519.452 654.418C521.599 656.563 526 658.986 526 658.986C526 658.986 521.6 661.45 519.452 663.6C517.303 665.751 514.998 670 514.998 670C512.001 663.915 509.168 661.554 504 659.014C504 659.014 508.594 656.569 510.742 654.418C512.89 652.268 515.002 648 515.002 648Z" fill="#89C064"/>
<path d="M189.002 162C189.002 162 191.304 166.273 193.452 168.418C195.599 170.563 200 172.986 200 172.986C200 172.986 195.6 175.45 193.452 177.6C191.303 179.751 188.998 184 188.998 184C186.001 177.915 183.168 175.554 178 173.014C178 173.014 182.594 170.569 184.742 168.418C186.89 166.268 189.002 162 189.002 162Z" fill="#89C064"/>
</svg>
